<?xml version="1.0" encoding="UTF-8"?>
<svg id="_圖層_2" data-name="圖層 2" xmlns="http://www.w3.org/2000/svg" xmlns:xlink="http://www.w3.org/1999/xlink" viewBox="0 0 158.75 290.93">
  <defs>
    <style>
      .cls-1 {
        fill: url(#_未命名漸層_26-9);
      }

      .cls-2 {
        fill: url(#_未命名漸層_26-11);
      }

      .cls-3 {
        fill: url(#_未命名漸層_26);
      }

      .cls-4 {
        fill: url(#_未命名漸層_26-8);
      }

      .cls-5 {
        fill: url(#_未命名漸層_26-12);
      }

      .cls-6 {
        fill: url(#_未命名漸層_26-10);
      }

      .cls-7 {
        fill: #fbd28b;
      }

      .cls-8 {
        fill: url(#_未命名漸層_26-6);
      }

      .cls-9 {
        fill: url(#_未命名漸層_26-3);
      }

      .cls-10 {
        fill: url(#_未命名漸層_26-2);
      }

      .cls-11 {
        fill: url(#_未命名漸層_26-5);
      }

      .cls-12 {
        fill: url(#_未命名漸層_216);
        opacity: .05;
      }

      .cls-13 {
        fill: url(#_未命名漸層_26-7);
      }

      .cls-14 {
        fill: #fde3b9;
      }

      .cls-15 {
        mask: url(#mask);
      }

      .cls-16 {
        fill: url(#_未命名漸層_26-4);
      }
    </style>
    <linearGradient id="_未命名漸層_26" data-name="未命名漸層 26" x1="151.8" y1="31.88" x2="158.75" y2="31.88" gradientUnits="userSpaceOnUse">
      <stop offset="0" stop-color="#c45b00"/>
      <stop offset=".24" stop-color="#f8bc5e"/>
      <stop offset=".51" stop-color="#d3833d"/>
      <stop offset=".77" stop-color="#f9c475"/>
      <stop offset=".98" stop-color="#c45b00"/>
    </linearGradient>
    <linearGradient id="_未命名漸層_26-2" data-name="未命名漸層 26" x1="146.66" y1="30.28" x2="153.61" y2="30.28" xlink:href="#_未命名漸層_26"/>
    <linearGradient id="_未命名漸層_26-3" data-name="未命名漸層 26" y1="28.54" x2="153.61" y2="28.54" xlink:href="#_未命名漸層_26"/>
    <linearGradient id="_未命名漸層_26-4" data-name="未命名漸層 26" x1="147.84" y1="29.56" x2="150.37" y2="29.56" xlink:href="#_未命名漸層_26"/>
    <linearGradient id="_未命名漸層_26-5" data-name="未命名漸層 26" x1="0" y1="53.95" x2="75.66" y2="53.95" xlink:href="#_未命名漸層_26"/>
    <linearGradient id="_未命名漸層_26-6" data-name="未命名漸層 26" x1="79.64" y1="53.97" x2="155.27" y2="53.97" xlink:href="#_未命名漸層_26"/>
    <linearGradient id="_未命名漸層_216" data-name="未命名漸層 216" x1="77.76" y1="110.45" x2="77.05" y2="273.77" gradientUnits="userSpaceOnUse">
      <stop offset="0" stop-color="#fff"/>
      <stop offset=".64" stop-color="#000"/>
    </linearGradient>
    <mask id="mask" x="-5.63" y="108.71" width="166" height="183" maskUnits="userSpaceOnUse">
      <rect class="cls-12" x="-5.63" y="108.71" width="166" height="183"/>
    </mask>
    <linearGradient id="_未命名漸層_26-7" data-name="未命名漸層 26" y1="-151.12" y2="-151.12" gradientTransform="translate(0 33.22) scale(1 -1)" xlink:href="#_未命名漸層_26"/>
    <linearGradient id="_未命名漸層_26-8" data-name="未命名漸層 26" x1="146.66" y1="-152.72" x2="153.61" y2="-152.72" gradientTransform="translate(0 33.22) scale(1 -1)" xlink:href="#_未命名漸層_26"/>
    <linearGradient id="_未命名漸層_26-9" data-name="未命名漸層 26" y1="-154.46" x2="153.61" y2="-154.46" gradientTransform="translate(0 33.22) scale(1 -1)" xlink:href="#_未命名漸層_26"/>
    <linearGradient id="_未命名漸層_26-10" data-name="未命名漸層 26" x1="147.84" y1="-153.44" x2="150.37" y2="-153.44" gradientTransform="translate(0 33.22) scale(1 -1)" xlink:href="#_未命名漸層_26"/>
    <linearGradient id="_未命名漸層_26-11" data-name="未命名漸層 26" x1="0" y1="-129.05" x2="75.66" y2="-129.05" gradientTransform="translate(0 33.22) scale(1 -1)" xlink:href="#_未命名漸層_26"/>
    <linearGradient id="_未命名漸層_26-12" data-name="未命名漸層 26" x1="79.64" y1="-129.03" x2="155.27" y2="-129.03" gradientTransform="translate(0 33.22) scale(1 -1)" xlink:href="#_未命名漸層_26"/>
  </defs>
  <g id="_圖層_1-2" data-name="圖層 1">
    <g>
      <g>
        <g>
          <path class="cls-3" d="M158.75,35.95h-1.82v-4.67c0-.92-.74-1.66-1.66-1.66s-1.66,.74-1.66,1.66h-1.82c0-1.92,1.56-3.48,3.48-3.48s3.48,1.56,3.48,3.48v4.67Z"/>
          <path class="cls-10" d="M150.14,35.95c-1.92,0-3.48-1.56-3.48-3.48v-7.87h1.82v7.87c0,.92,.74,1.66,1.66,1.66s1.66-.74,1.66-1.66h1.82c0,1.92-1.56,3.48-3.48,3.48Z"/>
          <rect class="cls-9" x="151.8" y="24.6" width="1.82" height="7.87"/>
          <rect class="cls-16" x="147.84" y="28.65" width="2.52" height="1.82"/>
        </g>
        <path class="cls-11" d="M62.71,41.76c-4.57-4.02-9.71-6.91-15.6-8.44-1.21-.31-2.44-.54-3.83-.85,10.78-9.81,21.44-19.52,32.18-29.29,.13-.12,.21-.29,.21-.46V.63c0-.35-.28-.63-.63-.63C52.46,0,29.9,.01,7.34,0c-.74,0-.92,.26-.91,.95,.03,3.82,.04,7.65,0,11.47,0,.65,.51,1.17,1.16,1.17,8.79-.04,17.57-.04,26.36-.05,3.17,0,6.34,0,9.5,0,.05,.12,.05,.12,.1,.24-.31,.3-.63,.6-.94,.9-5.76,5.33-11.72,10.44-17.39,15.88-2.92,2.8-5.99,5.44-8.99,8.15-.58,.53-.62,.88-.12,1.5,2.4,3.03,4.76,6.08,7.1,9.16,.44,.58,.8,.71,1.44,.34,1-.57,2.05-1.07,3.09-1.58,5.23-2.53,10.65-3.02,16.26-1.52,11.34,3.03,19.2,14.36,17.6,26.39-1.06,8.02-5.08,14.26-12.09,18.24-6.98,3.95-14.39,4.35-21.69,.87-6.78-3.23-11.31-8.54-13.32-15.88-.8-2.91-.91-5.89-1.04-8.87-.03-.69-.22-.95-.95-.94-3.86,.02-7.73,0-11.59-.03-.65,0-.9,.18-.89,.86,.05,3.13-.08,6.26,.49,9.37,1.68,9.21,6.13,16.84,13.34,22.75,6.19,5.08,13.37,7.85,21.4,8.42,8.03,.56,15.46-1.27,22.34-5.45,1.7-1.03,3.27-2.27,4.72-3.63,2.62-2.44,5.17-4.88,7.12-7.86,3.5-5.35,5.47-11.23,6.01-17.58,.68-7.91-.82-15.38-4.86-22.25-2.07-3.53-4.75-6.54-7.83-9.26Z"/>
        <path class="cls-8" d="M142.48,41.83c-5.54-4.91-11.92-8.16-19.62-9.29,10.85-9.88,21.53-19.6,32.21-29.33,.13-.12,.21-.29,.21-.46V.63c0-.35-.28-.63-.63-.63C132.12,0,109.6,.02,87.08,0c-.85,0-1.03,.28-1.02,1.07,.04,3.75,.05,7.51-.01,11.26-.02,1.02,.28,1.27,1.28,1.26,11.52-.04,23.04-.02,34.56-.02h1.54c-1.13,1.03-2.01,1.84-2.89,2.64-8.18,7.47-16.36,14.94-24.56,22.38-.68,.62-.75,1.01-.15,1.75,2.28,2.85,4.51,5.73,6.68,8.65,.66,.89,1.18,1.11,2.2,.52,3.39-1.98,7-3.46,10.97-3.67,8.54-.44,15.59,2.68,20.76,9.49,6.3,8.29,6.67,18.75,1.27,27.68-5,8.27-15.06,12.75-24.49,10.98-4.8-.9-8.89-3.09-12.39-6.44-3.37-3.23-5.63-7.1-6.79-11.64-.72-2.81-.79-5.69-.97-8.56-.04-.58-.08-.95-.82-.95-3.94,.02-7.88,0-11.81-.02-.54,0-.8,.14-.79,.74,.03,2.84-.15,5.7,.33,8.51,2.01,11.77,7.97,20.93,18.3,27.04,7.81,4.62,16.3,6.17,25.25,4.75,11.37-1.8,19.82-8.09,26.1-17.51,2.39-3.58,3.76-7.62,4.71-11.78,1.55-6.81,1.09-13.55-.99-20.19-2.02-6.44-5.87-11.69-10.87-16.12Z"/>
      </g>
      <g class="cls-15">
        <g>
          <g>
            <path class="cls-7" d="M43.65,270.77c1.09-5.16,3.06-11.49,5.87-15.78-6.83-5.16-11.87-6.89-17.23-8.73-.32-.1-1.02-.41-1.02-1.17,0-.61,.64-1.12,1.47-1.12,.7,0,10.66,2.5,19.4,7.76,3.96-4.39,9.96-7.96,14.93-7.96,2.81,0,4.91,.87,6.57,3.52,1.47,2.45,1.98,5.05,1.98,5.72,0,1.63-1.79,2.2-3.26,2.2-1.85,0-2.49-.92-3-2.6-.96-3.17-1.72-3.88-3-3.88-1.02,0-4.6,.92-9.38,6.33,3.83,2.96,9.19,7.81,9.19,10.06,0,1.68-2.3,2.76-4.21,2.76-1.66,0-2.55-.77-3.06-1.68-2.3-4.03-2.87-4.85-4.79-7-1.98,3.57-3.19,7.66-3.89,11.59h22.08c.57,0,1.79,.1,1.79,1.17,0,.97-1.15,1.12-1.79,1.12h-22.47c-.13,1.28-.51,5.92-.89,6.54-.57,.82-1.6,1.28-2.94,1.28-2.17,0-3.51-.92-3.51-2.71,0-1.23,.64-4.6,.7-5.11h-14.93c-3.96,0-6.77-.82-6.77-4.8v-6.13c0-7.86-1.98-12.76-5.17-16.13-.32-.31-.57-.61-.57-1.02,0-.66,.7-1.17,1.47-1.17,1.28,0,4.47,3.01,5.55,4.19,1.53,1.63,5.94,6.28,5.94,15.06v5.31c0,1.79,.45,2.4,2.94,2.4h12Zm-12,14.96h-13.02c-.57,0-1.79-.15-1.79-1.17,0-1.07,1.28-1.17,1.79-1.17h13.02v-2.81c0-1.74,.83-3.27,3.45-3.27,2.87,0,3.38,1.84,3.38,3.27v2.81h15.25v-2.81c0-1.74,.83-3.27,3.45-3.27,2.3,0,3.06,1.17,3.32,2.2,.13-.31,.32-.56,.64-.87,.96-.87,2.36-2.14,3.19-3.27,.7-.92,1.4-1.38,2.55-1.38,1.79,0,3.38,1.23,3.38,2.55,0,2.35-7.85,4.34-8.3,4.34-.7,0-1.09-.31-1.34-.66v3.17h13.08c.51,0,1.79,.05,1.79,1.17,0,1.02-1.15,1.17-1.79,1.17h-13.08v1.94c0,1.74-.77,3.27-3.45,3.27s-3.45-1.68-3.45-3.27v-1.94h-15.25v1.94c0,1.63-.64,3.27-3.45,3.27s-3.38-1.74-3.38-3.27v-1.94Z"/>
            <path class="cls-7" d="M85.62,276.87c-.64,0-1.4-.41-1.4-1.12,0-.36,.26-.66,.64-.92,2.87-1.94,4.34-3.01,6.45-5.36,.64-.66,1.34-1.48,2.87-1.48,1.91,0,3.45,1.43,3.45,2.96,0,1.28-.64,2.14-6.45,4.29-2.23,.82-4.98,1.63-5.55,1.63Zm14.36-10.98c-.77,0-1.15-.26-1.53-.97-1.98-3.52-5.11-8.22-9.7-13.28-2.68-2.96-3-3.27-3-4.08,0-1.58,1.79-2.96,3.7-2.96s2.68,.97,4.91,5.21c3.45,6.48,7.15,14.24,7.15,14.91s-.77,1.17-1.53,1.17Zm-11.04,24.97c-.64,0-1.4-.46-1.4-1.17,0-.36,.19-.61,.45-.82,3.06-2.25,3.96-2.91,5.04-3.93,2.74-2.6,3.06-2.91,4.34-2.91,1.91,0,3.45,1.33,3.45,2.96,0,1.23-.64,1.89-4.02,3.37-2.81,1.17-7.02,2.5-7.85,2.5Zm36.31-12.46h14.49c.57,0,1.79,.1,1.79,1.17s-1.21,1.17-1.79,1.17h-36c-.51,0-1.79-.1-1.79-1.17s1.21-1.17,1.79-1.17h14.49v-8.42h-12.32c-.57,0-1.79-.1-1.79-1.17s1.15-1.17,1.79-1.17h12.32v-9.09h-15.51c-.51,0-1.79-.1-1.79-1.17s1.28-1.17,1.79-1.17h15.51v-8.88c0-.97,0-3.52,3.51-3.52s3.51,2.65,3.51,3.52v8.88h15.96c.51,0,1.79,.15,1.79,1.17s-1.21,1.17-1.79,1.17h-15.96v9.09h12.25c.57,0,1.79,.1,1.79,1.17s-1.21,1.17-1.79,1.17h-12.25v8.42Zm-16.34,12.41c-1.15,0-1.53-.77-1.53-1.17,0-.36,.26-.71,.38-.87,1.79-2.04,2.81-3.32,3.89-5.41,.51-.97,1.08-2.14,3.26-2.14s3.77,1.33,3.77,2.66c0,1.17-1.21,2.14-3,3.32-3.7,2.45-6.13,3.62-6.77,3.62Zm22.66,.1c-1.21,0-2.04-.2-2.74-.97-.45-.51-1.66-3.42-1.98-4.14-.26-.51-2.04-3.22-2.04-3.73,0-.56,.64-1.12,1.47-1.12,1.6,0,9.25,5.41,9.25,7.51,0,1.33-2.23,2.45-3.96,2.45Z"/>
          </g>
          <g>
            <path class="cls-14" d="M23.45,226.68c.61,0,1.15,.22,1.61,.66,.46,.44,.69,.96,.69,1.55,0,.46-.15,.89-.45,1.31-.3,.41-.78,.86-1.44,1.35-.66,.49-1.08,.85-1.27,1.07-.19,.23-.28,.49-.28,.8s.1,.56,.32,.76c.21,.2,.48,.3,.81,.3s.61-.1,.84-.29c.23-.19,.45-.43,.66-.72l.66,.52c-.31,.44-.64,.78-.97,1-.34,.22-.73,.34-1.18,.34-.57,0-1.05-.19-1.43-.56-.38-.37-.57-.82-.57-1.36,0-.25,.05-.5,.14-.75,.1-.25,.24-.48,.45-.7,.2-.22,.6-.55,1.18-.99,.58-.44,1-.82,1.25-1.14,.25-.32,.38-.64,.38-.95,0-.4-.15-.73-.45-1-.3-.27-.66-.4-1.08-.4-.65,0-1.22,.45-1.71,1.35l-.7-.41c.6-1.16,1.44-1.74,2.52-1.74Z"/>
            <path class="cls-14" d="M27.99,227.62c.61-.63,1.36-.94,2.26-.94s1.64,.32,2.25,.94c.61,.63,.91,1.39,.91,2.27s-.31,1.65-.92,2.28c-.61,.63-1.36,.95-2.25,.95s-1.63-.32-2.25-.95c-.61-.63-.92-1.4-.92-2.29s.31-1.63,.92-2.26Zm3.94,.52c-.46-.48-1.03-.72-1.7-.72s-1.23,.24-1.68,.71c-.45,.47-.68,1.05-.68,1.73s.23,1.27,.7,1.76c.47,.49,1.02,.74,1.67,.74s1.2-.25,1.67-.74c.47-.49,.7-1.08,.7-1.75s-.23-1.26-.69-1.74Z"/>
            <path class="cls-14" d="M40.15,232.96v-1.11c-.62,.85-1.42,1.27-2.42,1.27-.86,0-1.6-.32-2.22-.95-.62-.63-.93-1.39-.93-2.27s.31-1.64,.92-2.28c.61-.64,1.37-.96,2.26-.96s1.69,.42,2.38,1.25v-1.04h.77v6.08h-.77Zm-.66-4.86c-.47-.47-1.04-.71-1.7-.71s-1.23,.25-1.7,.74c-.47,.49-.71,1.08-.71,1.75s.23,1.25,.7,1.75c.47,.49,1.04,.74,1.71,.74s1.25-.24,1.71-.72c.47-.48,.7-1.06,.7-1.76s-.24-1.31-.71-1.79Z"/>
            <path class="cls-14" d="M42.39,226.88h.8v2.06c0,1.02,.05,1.72,.15,2.1,.1,.39,.25,.7,.46,.95,.21,.24,.43,.37,.67,.37,.12,0,.24-.03,.36-.1l.41,.66c-.25,.14-.5,.21-.75,.21s-.47-.08-.68-.25c-.2-.17-.41-.43-.62-.79v.88h-.8v-6.08Z"/>
            <path class="cls-14" d="M50.47,232.3h1.24v.66h-1.24v2.35h-.79v-2.35h-1.08v-.66h1.08v-4.58c0-.36,.08-.62,.24-.79,.16-.17,.41-.25,.76-.25,.18,0,.44,.03,.76,.08v.66h-.47c-.22,0-.36,.02-.41,.06-.05,.04-.08,.16-.08,.37v4.46Z"/>
            <path class="cls-14" d="M53.51,227.62c.61-.63,1.36-.94,2.26-.94s1.64,.32,2.25,.94c.61,.63,.91,1.39,.91,2.27s-.31,1.65-.92,2.28c-.61,.63-1.36,.95-2.25,.95s-1.63-.32-2.25-.95c-.61-.63-.92-1.4-.92-2.29s.31-1.63,.92-2.26Zm3.94,.52c-.46-.48-1.03-.72-1.7-.72s-1.23,.24-1.68,.71c-.45,.47-.68,1.05-.68,1.73s.23,1.27,.7,1.76c.47,.49,1.02,.74,1.67,.74s1.2-.25,1.67-.74c.47-.49,.7-1.08,.7-1.75s-.23-1.26-.69-1.74Z"/>
            <path class="cls-14" d="M68.54,232.96v-1.11c-.62,.85-1.42,1.27-2.42,1.27-.86,0-1.6-.32-2.22-.95-.62-.63-.93-1.39-.93-2.27s.31-1.64,.92-2.28c.61-.64,1.37-.96,2.26-.96s1.69,.42,2.38,1.25v-1.04h.77v6.08h-.77Zm-.66-4.86c-.47-.47-1.04-.71-1.7-.71s-1.23,.25-1.7,.74c-.47,.49-.71,1.08-.71,1.75s.23,1.25,.7,1.75c.47,.49,1.04,.74,1.71,.74s1.25-.24,1.71-.72c.47-.48,.7-1.06,.7-1.76s-.24-1.31-.71-1.79Z"/>
            <path class="cls-14" d="M74.92,226.88v6.22l5.43-6.22h.18v8.23h-.81v-6.3l-5.46,6.3h-.18v-8.23h.85Z"/>
            <path class="cls-14" d="M85.22,227.4c-.63,0-1.16,.22-1.6,.67-.44,.45-.67,1.04-.69,1.77h5.48c-.02,1.02-.33,1.82-.93,2.41-.6,.59-1.34,.88-2.22,.88s-1.62-.32-2.22-.95c-.6-.63-.9-1.39-.9-2.28s.3-1.64,.89-2.27c.6-.63,1.35-.94,2.27-.94,1.28,0,2.25,.61,2.91,1.83l-.66,.34c-.51-.97-1.28-1.45-2.31-1.45Zm-2.21,3.12c.35,1.24,1.1,1.86,2.25,1.86,.56,0,1.05-.16,1.48-.49,.43-.33,.7-.78,.8-1.36h-4.53Z"/>
            <path class="cls-14" d="M91.64,226.68h.15l1.95,4.56,1.94-4.56h.15l2.65,6.29h-.82l-1.89-4.62-1.95,4.62h-.14l-1.96-4.62-1.86,4.62h-.81l2.6-6.29Z"/>
            <path class="cls-14" d="M102.36,226.88h.84v3.97h4.18v-3.97h.82v8.23h-.82v-3.45h-4.18v3.45h-.84v-8.23Z"/>
            <path class="cls-14" d="M112.88,227.4c-.63,0-1.16,.22-1.6,.67-.44,.45-.67,1.04-.69,1.77h5.48c-.02,1.02-.33,1.82-.93,2.41-.6,.59-1.34,.88-2.22,.88s-1.62-.32-2.22-.95c-.6-.63-.9-1.39-.9-2.28s.3-1.64,.89-2.27c.6-.63,1.35-.94,2.27-.94,1.28,0,2.25,.61,2.91,1.83l-.66,.34c-.51-.97-1.28-1.45-2.31-1.45Zm-2.21,3.12c.35,1.24,1.1,1.86,2.25,1.86,.56,0,1.05-.16,1.48-.49,.43-.33,.7-.78,.8-1.36h-4.53Z"/>
            <path class="cls-14" d="M117.34,234.21c.13-.13,.28-.2,.46-.2s.33,.06,.46,.19,.19,.28,.19,.46-.06,.33-.19,.46c-.13,.13-.28,.19-.46,.19s-.33-.07-.46-.19c-.13-.13-.19-.28-.19-.46s.06-.32,.19-.45Zm.06-7.33h.79v6.08h-.79v-6.08Z"/>
            <path class="cls-14" d="M125.14,231.91c-.67,.81-1.45,1.21-2.34,1.21s-1.65-.31-2.27-.92c-.63-.61-.94-1.34-.94-2.19s.29-1.53,.88-2.13c.59-.6,1.33-.91,2.21-.91,.47,0,.92,.1,1.35,.29,.43,.19,.8,.48,1.11,.87v-.26c0-.66-.08-1.14-.23-1.45-.16-.31-.42-.56-.8-.76-.38-.2-.82-.3-1.33-.3-1.06,0-1.81,.4-2.26,1.19h-.85c.5-1.27,1.55-1.9,3.14-1.9,.47,0,.89,.07,1.28,.21,.39,.14,.72,.34,1,.6,.28,.26,.49,.58,.63,.97s.22,1,.22,1.83v4.7h-.79v-1.05Zm-.64-3.55c-.45-.43-1.02-.64-1.72-.64s-1.28,.22-1.73,.66c-.45,.44-.68,.97-.68,1.6s.23,1.18,.7,1.67c.47,.49,1.05,.73,1.75,.73,.66,0,1.22-.22,1.67-.68,.45-.45,.68-1.01,.68-1.67s-.22-1.23-.67-1.66Z"/>
            <path class="cls-14" d="M127.52,226.88h.79v2.23c0,.83,.03,1.39,.1,1.66,.07,.27,.2,.54,.4,.8,.2,.26,.44,.46,.72,.61,.28,.15,.58,.22,.89,.22s.57-.05,.79-.17c.22-.11,.39-.27,.52-.49,.13-.21,.21-.44,.25-.68,.04-.24,.06-.67,.06-1.29v-2.9h.79v3.13c0,.78-.08,1.37-.23,1.77-.15,.4-.41,.73-.78,.97-.37,.25-.78,.37-1.24,.37-.89,0-1.65-.42-2.28-1.25v3.44h-.79v-8.43Z"/>
            <path class="cls-14" d="M135.98,232.3h1.24v.66h-1.24v2.35h-.79v-2.35h-1.08v-.66h1.08v-4.58c0-.36,.08-.62,.24-.79,.16-.17,.41-.25,.76-.25,.18,0,.44,.03,.76,.08v.66h-.47c-.22,0-.36,.02-.41,.06-.05,.04-.08,.16-.08,.37v4.46Z"/>
          </g>
          <g>
            <g>
              <path class="cls-13" d="M158.75,180.26h-1.82v4.67c0,.92-.74,1.66-1.66,1.66s-1.66-.74-1.66-1.66h-1.82c0,1.92,1.56,3.48,3.48,3.48s3.48-1.56,3.48-3.48v-4.67Z"/>
              <path class="cls-4" d="M150.14,180.27c-1.92,0-3.48,1.56-3.48,3.48v7.87h1.82v-7.87c0-.92,.74-1.66,1.66-1.66s1.66,.74,1.66,1.66h1.82c0-1.92-1.56-3.48-3.48-3.48Z"/>
              <rect class="cls-1" x="151.8" y="183.74" width="1.82" height="7.87"/>
              <rect class="cls-6" x="147.84" y="185.75" width="2.52" height="1.82"/>
            </g>
            <path class="cls-2" d="M62.71,174.45c-4.57,4.02-9.71,6.91-15.6,8.44-1.21,.31-2.44,.54-3.83,.85,10.78,9.81,21.44,19.52,32.18,29.29,.13,.12,.21,.29,.21,.46v2.09c0,.35-.28,.63-.63,.63-22.56,0-45.13-.01-67.69,0-.74,0-.92-.26-.91-.95,.03-3.82,.04-7.65,0-11.47,0-.65,.51-1.17,1.16-1.17,8.79,.04,17.57,.04,26.36,.05,3.17,0,6.34,0,9.5,0,.05-.12,.05-.12,.1-.24-.31-.3-.63-.6-.94-.9-5.76-5.33-11.72-10.44-17.39-15.88-2.92-2.8-5.99-5.44-8.99-8.15-.58-.53-.62-.88-.12-1.5,2.4-3.03,4.76-6.08,7.1-9.16,.44-.58,.8-.71,1.44-.34,1,.57,2.05,1.07,3.09,1.58,5.23,2.53,10.65,3.02,16.26,1.52,11.34-3.03,19.2-14.36,17.6-26.39-1.06-8.02-5.08-14.26-12.09-18.24-6.98-3.95-14.39-4.35-21.69-.87-6.78,3.23-11.31,8.54-13.32,15.88-.8,2.91-.91,5.89-1.04,8.87-.03,.69-.22,.95-.95,.94-3.86-.02-7.73,0-11.59,.03-.65,0-.9-.18-.89-.86,.05-3.13-.08-6.26,.49-9.37,1.68-9.21,6.13-16.84,13.34-22.75,6.19-5.08,13.37-7.85,21.4-8.42,8.03-.56,15.46,1.27,22.34,5.45,1.7,1.03,3.27,2.27,4.72,3.63,2.62,2.44,5.17,4.88,7.12,7.86,3.5,5.35,5.47,11.23,6.01,17.58,.68,7.91-.82,15.38-4.86,22.25-2.07,3.53-4.75,6.54-7.83,9.26Z"/>
            <path class="cls-5" d="M142.48,174.39c-5.54,4.91-11.92,8.16-19.62,9.29,10.85,9.88,21.53,19.6,32.21,29.33,.13,.12,.21,.29,.21,.46v2.12c0,.35-.28,.63-.63,.63-22.52,0-45.04-.01-67.56,0-.85,0-1.03-.28-1.02-1.07,.04-3.75,.05-7.51-.01-11.26-.02-1.02,.28-1.27,1.28-1.26,11.52,.04,23.04,.02,34.56,.02h1.54c-1.13-1.03-2.01-1.84-2.89-2.64-8.18-7.47-16.36-14.94-24.56-22.38-.68-.62-.75-1.01-.15-1.75,2.28-2.85,4.51-5.73,6.68-8.65,.66-.89,1.18-1.11,2.2-.52,3.39,1.98,7,3.46,10.97,3.67,8.54,.44,15.59-2.68,20.76-9.49,6.3-8.29,6.67-18.75,1.27-27.68-5-8.27-15.06-12.75-24.49-10.98-4.8,.9-8.89,3.09-12.39,6.44-3.37,3.23-5.63,7.1-6.79,11.64-.72,2.81-.79,5.69-.97,8.56-.04,.58-.08,.95-.82,.95-3.94-.02-7.88,0-11.81,.02-.54,0-.8-.14-.79-.74,.03-2.84-.15-5.7,.33-8.51,2.01-11.77,7.97-20.93,18.3-27.04,7.81-4.62,16.3-6.17,25.25-4.75,11.37,1.8,19.82,8.09,26.1,17.51,2.39,3.58,3.76,7.62,4.71,11.78,1.55,6.81,1.09,13.55-.99,20.19-2.02,6.44-5.87,11.69-10.87,16.12Z"/>
          </g>
        </g>
      </g>
    </g>
  </g>
</svg>