<?xml version="1.0" encoding="UTF-8"?>
<svg id="_圖層_2" data-name="圖層 2" xmlns="http://www.w3.org/2000/svg" viewBox="0 0 127.24 66.27">
  <defs>
    <style>
      .cls-1 {
        fill: #fbd28b;
      }

      .cls-2 {
        fill: #fde3b9;
      }
    </style>
  </defs>
  <g id="_圖層_1-2" data-name="圖層 1">
    <g>
      <g>
        <path class="cls-1" d="M15.89,20.17c-2.49,0-2.94,.61-2.94,2.4v5.31c0,8.78-4.4,13.43-5.94,15.06-1.09,1.17-4.28,4.19-5.55,4.19-.77,0-1.47-.51-1.47-1.17,0-.41,.26-.72,.57-1.02,3.19-3.37,5.17-8.27,5.17-16.13v-6.13c0-3.98,2.81-4.8,6.77-4.8h14.93c-.06-.51-.7-3.88-.7-5.11,0-1.79,1.34-2.71,3.51-2.71,1.34,0,2.36,.46,2.94,1.28,.38,.61,.77,5.26,.89,6.54h22.47c.64,0,1.79,.15,1.79,1.12,0,1.07-1.21,1.17-1.79,1.17h-22.08c.7,3.93,1.91,8.02,3.89,11.59,1.91-2.14,2.49-2.96,4.79-7,.51-.92,1.4-1.68,3.06-1.68,1.91,0,4.21,1.07,4.21,2.76,0,2.25-5.36,7.1-9.19,10.06,4.79,5.41,8.36,6.33,9.38,6.33,1.28,0,2.04-.71,3-3.88,.51-1.68,1.15-2.6,3-2.6,1.47,0,3.26,.56,3.26,2.2,0,.66-.51,3.27-1.98,5.72-1.66,2.66-3.77,3.52-6.57,3.52-4.98,0-10.98-3.57-14.93-7.96-8.74,5.26-18.7,7.76-19.4,7.76-.83,0-1.47-.51-1.47-1.12,0-.77,.7-1.07,1.02-1.17,5.36-1.84,10.4-3.57,17.23-8.73-2.81-4.29-4.79-10.62-5.87-15.78H15.89Zm0-16.9c0-1.53,.7-3.27,3.38-3.27s3.45,1.63,3.45,3.27v1.94h15.25v-1.94c0-1.58,.7-3.27,3.45-3.27s3.45,1.53,3.45,3.27v1.94h13.08c.64,0,1.79,.15,1.79,1.17,0,1.12-1.28,1.17-1.79,1.17h-13.08v3.17c.26-.36,.64-.66,1.34-.66,.45,0,8.3,1.99,8.3,4.34,0,1.33-1.6,2.55-3.38,2.55-1.15,0-1.85-.46-2.55-1.38-.83-1.12-2.23-2.4-3.19-3.27-.32-.31-.51-.56-.64-.87-.26,1.02-1.02,2.2-3.32,2.2-2.62,0-3.45-1.53-3.45-3.27v-2.81h-15.25v2.81c0,1.43-.51,3.27-3.38,3.27-2.62,0-3.45-1.53-3.45-3.27v-2.81H2.87c-.51,0-1.79-.1-1.79-1.17s1.21-1.17,1.79-1.17H15.89v-1.94Z"/>
        <path class="cls-1" d="M75.41,15.7c5.81,2.14,6.45,3.01,6.45,4.29,0,1.53-1.53,2.96-3.45,2.96-1.53,0-2.23-.82-2.87-1.48-2.11-2.35-3.57-3.42-6.45-5.36-.38-.26-.64-.56-.64-.92,0-.72,.77-1.12,1.4-1.12,.57,0,3.32,.82,5.55,1.63Zm10.34,10.52c0,.66-3.7,8.42-7.15,14.91-2.23,4.24-3,5.21-4.91,5.21s-3.7-1.38-3.7-2.96c0-.82,.32-1.12,3-4.08,4.6-5.06,7.72-9.75,9.7-13.28,.38-.72,.77-.97,1.53-.97s1.53,.51,1.53,1.17Zm-4.72-23.64c3.38,1.48,4.02,2.14,4.02,3.37,0,1.63-1.53,2.96-3.45,2.96-1.28,0-1.6-.31-4.34-2.91-1.08-1.02-1.98-1.68-5.04-3.93-.25-.2-.45-.46-.45-.82,0-.72,.77-1.17,1.4-1.17,.83,0,5.04,1.33,7.85,2.5Zm28.46,18.38h12.25c.57,0,1.79,.15,1.79,1.17,0,1.07-1.21,1.17-1.79,1.17h-12.25v9.09h15.96c.58,0,1.79,.15,1.79,1.17s-1.28,1.17-1.79,1.17h-15.96v8.88c0,.87,0,3.52-3.51,3.52s-3.51-2.55-3.51-3.52v-8.88h-15.51c-.51,0-1.79-.1-1.79-1.17s1.28-1.17,1.79-1.17h15.51v-9.09h-12.32c-.64,0-1.79-.15-1.79-1.17,0-1.07,1.21-1.17,1.79-1.17h12.32V12.53h-14.49c-.57,0-1.79-.1-1.79-1.17s1.28-1.17,1.79-1.17h36c.57,0,1.79,.15,1.79,1.17,0,1.07-1.21,1.17-1.79,1.17h-14.49v8.42ZM99.92,3.75c1.79,1.17,3,2.14,3,3.32,0,1.33-1.53,2.66-3.77,2.66s-2.74-1.17-3.26-2.14c-1.09-2.09-2.11-3.37-3.89-5.41-.13-.15-.38-.51-.38-.87,0-.41,.38-1.17,1.53-1.17,.64,0,3.06,1.17,6.77,3.62Zm19.85-1.28c0,2.09-7.66,7.51-9.25,7.51-.83,0-1.47-.56-1.47-1.12,0-.51,1.79-3.22,2.04-3.73,.32-.72,1.53-3.63,1.98-4.14,.7-.77,1.53-.97,2.74-.97,1.72,0,3.96,1.12,3.96,2.45Z"/>
      </g>
      <g>
        <path class="cls-2" d="M5.17,62.52l.7-.41c.49,.9,1.06,1.35,1.71,1.35,.42,0,.78-.13,1.08-.4,.3-.27,.45-.6,.45-1,0-.31-.13-.63-.38-.95-.25-.32-.67-.7-1.25-1.14-.58-.44-.98-.77-1.18-.99-.2-.22-.35-.45-.45-.7-.1-.25-.14-.5-.14-.75,0-.53,.19-.99,.57-1.36,.38-.37,.85-.56,1.43-.56,.45,0,.84,.11,1.18,.34,.34,.23,.66,.56,.97,1l-.66,.52c-.21-.29-.44-.53-.66-.72-.23-.19-.51-.29-.84-.29s-.6,.1-.81,.3c-.21,.2-.32,.45-.32,.76s.09,.57,.28,.8c.19,.22,.61,.58,1.27,1.07,.66,.49,1.14,.94,1.44,1.35,.3,.41,.45,.85,.45,1.31,0,.6-.23,1.11-.69,1.55-.46,.44-1,.66-1.61,.66-1.08,0-1.92-.58-2.52-1.74Z"/>
        <path class="cls-2" d="M11.31,61.05c0-.89,.31-1.66,.92-2.29,.61-.63,1.36-.95,2.25-.95s1.63,.32,2.25,.95c.61,.63,.92,1.39,.92,2.28s-.3,1.64-.91,2.27c-.61,.63-1.36,.94-2.25,.94s-1.65-.32-2.26-.94c-.61-.63-.92-1.38-.92-2.26Zm5.54,.01c0-.67-.23-1.25-.7-1.75-.47-.49-1.03-.74-1.67-.74s-1.2,.25-1.67,.74c-.47,.49-.7,1.08-.7,1.76s.23,1.26,.68,1.73c.45,.47,1.01,.71,1.68,.71s1.23-.24,1.7-.72c.46-.48,.69-1.06,.69-1.74Z"/>
        <path class="cls-2" d="M25.16,57.97v6.08h-.77v-1.04c-.7,.83-1.49,1.25-2.38,1.25s-1.65-.32-2.26-.96c-.61-.64-.92-1.4-.92-2.28s.31-1.64,.93-2.27c.62-.63,1.36-.95,2.22-.95,.99,0,1.8,.42,2.42,1.27v-1.11h.77Zm-.72,3.07c0-.7-.23-1.28-.7-1.76-.47-.48-1.04-.72-1.71-.72s-1.25,.25-1.71,.74c-.47,.49-.7,1.08-.7,1.75s.24,1.25,.71,1.75c.47,.49,1.04,.74,1.7,.74s1.23-.24,1.7-.71c.47-.47,.71-1.07,.71-1.79Z"/>
        <path class="cls-2" d="M26.63,57.97h.8v.88c.21-.36,.42-.62,.62-.79,.2-.17,.43-.25,.68-.25s.5,.07,.75,.21l-.41,.66c-.11-.07-.23-.1-.36-.1-.24,0-.46,.12-.67,.37-.21,.25-.37,.56-.46,.95-.1,.39-.15,1.09-.15,2.1v2.06h-.8v-6.08Z"/>
        <path class="cls-2" d="M34.72,63.09c0,.21,.03,.33,.08,.37,.05,.04,.19,.06,.41,.06h.47v.66c-.32,.05-.57,.08-.76,.08-.34,0-.6-.08-.76-.25-.16-.17-.24-.43-.24-.79v-4.58h-1.08v-.66h1.08v-2.35h.79v2.35h1.24v.66h-1.24v4.46Z"/>
        <path class="cls-2" d="M36.84,61.05c0-.89,.31-1.66,.92-2.29,.61-.63,1.36-.95,2.25-.95s1.63,.32,2.25,.95c.61,.63,.92,1.39,.92,2.28s-.3,1.64-.91,2.27c-.61,.63-1.36,.94-2.25,.94s-1.65-.32-2.26-.94c-.61-.63-.92-1.38-.92-2.26Zm5.54,.01c0-.67-.23-1.25-.7-1.75-.47-.49-1.03-.74-1.67-.74s-1.2,.25-1.67,.74c-.47,.49-.7,1.08-.7,1.76s.23,1.26,.68,1.73c.45,.47,1.01,.71,1.68,.71s1.23-.24,1.7-.72c.46-.48,.69-1.06,.69-1.74Z"/>
        <path class="cls-2" d="M53.55,57.97v6.08h-.77v-1.04c-.7,.83-1.49,1.25-2.38,1.25s-1.65-.32-2.26-.96c-.61-.64-.92-1.4-.92-2.28s.31-1.64,.93-2.27c.62-.63,1.36-.95,2.22-.95,.99,0,1.8,.42,2.42,1.27v-1.11h.77Zm-.72,3.07c0-.7-.23-1.28-.7-1.76-.47-.48-1.04-.72-1.71-.72s-1.25,.25-1.71,.74c-.47,.49-.7,1.08-.7,1.75s.24,1.25,.71,1.75c.47,.49,1.04,.74,1.7,.74s1.23-.24,1.7-.71c.47-.47,.71-1.07,.71-1.79Z"/>
        <path class="cls-2" d="M58.32,64.05v-8.23h.18l5.46,6.3v-6.3h.81v8.23h-.18l-5.43-6.22v6.22h-.85Z"/>
        <path class="cls-2" d="M71.78,62.08l.66,.34c-.66,1.22-1.63,1.83-2.91,1.83-.92,0-1.67-.32-2.27-.94-.6-.63-.89-1.39-.89-2.27s.3-1.65,.9-2.28c.6-.63,1.34-.95,2.22-.95s1.62,.29,2.22,.88c.6,.59,.91,1.39,.93,2.41h-5.48c.02,.73,.25,1.32,.69,1.77,.44,.45,.97,.67,1.6,.67,1.03,0,1.8-.49,2.31-1.45Zm0-1.66c-.11-.58-.37-1.03-.8-1.36-.43-.33-.92-.49-1.48-.49-1.15,0-1.89,.62-2.25,1.86h4.53Z"/>
        <path class="cls-2" d="M73.28,57.97h.81l1.86,4.62,1.96-4.62h.14l1.95,4.62,1.89-4.62h.82l-2.65,6.29h-.15l-1.94-4.56-1.95,4.56h-.15l-2.6-6.29Z"/>
        <path class="cls-2" d="M86.6,55.83h.84v3.45h4.18v-3.45h.82v8.23h-.82v-3.97h-4.18v3.97h-.84v-8.23Z"/>
        <path class="cls-2" d="M99.44,62.08l.66,.34c-.66,1.22-1.63,1.83-2.91,1.83-.92,0-1.67-.32-2.27-.94-.6-.63-.89-1.39-.89-2.27s.3-1.65,.9-2.28c.6-.63,1.34-.95,2.22-.95s1.62,.29,2.22,.88c.6,.59,.91,1.39,.93,2.41h-5.48c.02,.73,.25,1.32,.69,1.77,.44,.45,.97,.67,1.6,.67,1.03,0,1.8-.49,2.31-1.45Zm0-1.66c-.11-.58-.37-1.03-.8-1.36-.43-.33-.92-.49-1.48-.49-1.15,0-1.89,.62-2.25,1.86h4.53Z"/>
        <path class="cls-2" d="M101.4,56.27c0-.18,.06-.33,.19-.46,.13-.13,.28-.19,.46-.19s.33,.06,.46,.19c.13,.13,.19,.28,.19,.46s-.06,.33-.19,.46-.28,.19-.46,.19-.33-.07-.46-.2c-.13-.13-.19-.28-.19-.45Zm.25,1.7h.79v6.08h-.79v-6.08Z"/>
        <path class="cls-2" d="M109.38,57.97h.79v4.7c0,.83-.07,1.44-.22,1.83s-.35,.71-.63,.97c-.28,.26-.61,.46-1,.6-.39,.14-.82,.21-1.28,.21-1.59,0-2.64-.63-3.14-1.9h.85c.44,.79,1.2,1.19,2.26,1.19,.51,0,.96-.1,1.33-.3,.38-.2,.65-.45,.8-.76,.16-.31,.23-.79,.23-1.45v-.26c-.31,.39-.68,.68-1.11,.87-.43,.19-.88,.29-1.35,.29-.89,0-1.62-.3-2.21-.91-.59-.6-.88-1.31-.88-2.13s.31-1.58,.94-2.19c.63-.61,1.38-.92,2.27-.92s1.67,.4,2.34,1.21v-1.05Zm.03,2.94c0-.66-.23-1.22-.68-1.67-.45-.45-1.01-.68-1.67-.68-.7,0-1.29,.24-1.75,.73-.47,.49-.7,1.04-.7,1.67s.23,1.16,.68,1.6c.45,.44,1.03,.66,1.73,.66s1.28-.21,1.72-.64c.45-.43,.67-.98,.67-1.66Z"/>
        <path class="cls-2" d="M111.76,55.62h.79v3.44c.63-.83,1.39-1.25,2.28-1.25,.46,0,.87,.12,1.24,.37,.37,.25,.63,.57,.78,.97,.15,.4,.23,.99,.23,1.77v3.13h-.79v-2.9c0-.63-.02-1.06-.06-1.29-.04-.24-.12-.46-.25-.68-.13-.21-.3-.38-.52-.49-.22-.11-.48-.17-.79-.17s-.61,.07-.89,.22c-.28,.15-.52,.35-.72,.61-.2,.26-.33,.53-.4,.8-.07,.28-.1,.83-.1,1.66v2.23h-.79v-8.43Z"/>
        <path class="cls-2" d="M120.23,63.09c0,.21,.03,.33,.08,.37,.05,.04,.19,.06,.41,.06h.47v.66c-.32,.05-.57,.08-.76,.08-.34,0-.6-.08-.76-.25-.16-.17-.24-.43-.24-.79v-4.58h-1.08v-.66h1.08v-2.35h.79v2.35h1.24v.66h-1.24v4.46Z"/>
      </g>
    </g>
  </g>
</svg>