<?xml version="1.0" encoding="UTF-8"?>
<svg id="_圖層_2" data-name="圖層 2" xmlns="http://www.w3.org/2000/svg" viewBox="0 0 24.29 7.79">
  <defs>
    <style>
      .cls-1 {
        fill: #7e7f7a;
      }

      .cls-2 {
        fill: #777672;
      }

      .cls-3 {
        fill: #7f807e;
      }

      .cls-4 {
        fill: #656562;
      }

      .cls-5 {
        fill: #7f7f80;
      }

      .cls-6 {
        fill: #5b5a56;
      }

      .cls-7 {
        fill: #6f6f6a;
      }
    </style>
  </defs>
  <g id="_圖層_1-2" data-name="圖層 1">
    <g>
      <path class="cls-1" d="M3.66,1.2c-.3,.12-.62,.41-.91,.1-.3-.33-.63-.04-.92-.14C.73,1.88,.45,2.17,0,3.19c1.12-.03,2.1-.54,3.16-.53,.98-.21,.46-.93,.5-1.46h0Z"/>
      <g>
        <path class="cls-5" d="M7.88,4.17c-.06,.17-.12,.35-.17,.52,.24,.1,.47,.08,.69-.02-.17-.17-.35-.33-.52-.5Z"/>
        <path class="cls-5" d="M7.7,4.47c-.08-.08-.17-.16-.25-.23,.03,.14,.12,.21,.25,.23Z"/>
        <g>
          <path class="cls-5" d="M3.16,2.66c1.67-.15,3.01,.62,4.28,1.57,.62-.3,1.21-.58,1.26-1.42,.03-.55,.7-.5,.98-.84C8.27,.65,6.52,.11,4.66,0,3.58-.06,2.63,.44,1.83,1.17c.55,.11,1.01,.76,1.66,.28,.09-.04,.05-.23,.16-.2,.05,.01-.14,.1-.13,.21-.04,.43-.3,.79-.36,1.21Z"/>
          <path class="cls-3" d="M8.2,4.23c.31,.14,.31,.61,.69,.67,.29-.07,.15-.35,.24-.51,.24-.4,.48-.63,.81-.09,.09,.15,.26,.36,.31,.18,.28-.89,.84-.13,1.23-.25,.08-.02,.17,0,.25,0,0-.07,0-.15,0-.22-.59-.14-.74-.73-1.13-1.08-.33-.3-.52-.75-.93-.96-1.07,.03-1.08,.02-1.31,1.09-.08,.39-.24,.67-.68,.66-.45,0-.15,.35-.25,.51h0c.08,.08,.17,.16,.25,.24h.01c.28,.16,.36-.1,.49-.24Z"/>
          <g>
            <path class="cls-2" d="M12.24,5.75c-.23-.03-.26-.58-.66-.21-.24,.23-.29,.18-.36-.3-.04-.38,.34-.34,.51-.5h0c.06-.05,.08-.11,.06-.17-.02-.06-.04-.09-.06-.09,0-.08,0-.16,0-.24-.96-.44-1.91-.82-2.85,.05-.23,.21-.51-.3-.78,0-.12,.25-.08,.47,.11,.67,.66,.75,1.38,1.46,1.95,2.27,.39,.56,.81,.68,1.38,.47,.34-.13,.76-.09,1.03-.4-1.03-.43-1.04-.46-.34-1.55h0Z"/>
            <path class="cls-3" d="M11.74,4.74c-.33,0-.66-.02-.88,.29-.07,.09-.12,.24,.02,.28,.1,.03,.23-.04,.34-.07,0,0,0,0,0,0,.08-.09,.17-.16,.26-.25,.09-.08,.17-.17,.26-.25Z"/>
            <g>
              <path class="cls-5" d="M12.24,3.98c0-.07,0-.15,0-.22-.15-.01-.25,.06-.31,.19,.1,.01,.2,.02,.31,.03Z"/>
              <path class="cls-5" d="M12.42,3.69c.15,0,.26-.06,.33-.19-.15,0-.26,.06-.33,.19Z"/>
              <g>
                <path class="cls-4" d="M21.07,5.46c1.27,.3,2.09,1.31,3.08,2.1,.44-1.67-.23-2.95-2.07-4.06-.62,.33-1.21,.23-1.88,.09-.81-.17,.13-.44-.1-.59-.63-.44-1.29-.42-1.98-.16-.21,.12-.39,.29-.57,.46-.17,.18-.28,.39-.35,.62-.02,.12-.03,.23-.02,.35-.09,.87,.5,1.03,1.17,1.09,.91,.08,1.82-.11,2.72,.11Z"/>
                <path class="cls-7" d="M21.07,5.46c-.47-.4-1.03-.18-1.54-.23-.45-.04-.91-.01-1.35-.08-.43-.07-.87-.19-.58-.82,.03-.06-.2-.23-.31-.35-.1-.12-.23-.15-.37-.12-.37,.18,.01-.28-.2-.23q-.92-.17-.55,1.09c-1.21-1.09-2.57-.87-3.9-.86-.12,0-.23,.04-.34,.09-.08,0-.14,.02-.2,.07-.08,.05-.13,.12-.15,.22,0,.09,.02,.18,.06,.26,.05,.06,.18,.09,.18,.14,.01,.17,.07,0-.09,0-.09,.03-.17,.08-.25,.14-.08,.06-.15,.13-.21,.21-.07,.08-.13,.17-.18,.26-.04,.1-.06,.2-.06,.31,.11,.75,.56,.36,.9,.28,.15,0,.04-.18,.06-.02,.02,.11-.13,.08-.18,.16-.41,1.09-.33,1.23,.75,1.31h.09s.07-.05,.07-.05c.16-.11,.22-.42,.51-.22,.09-.03,.17-.07,.26-.1,.09-.03,.17-.08,.23-.16,2.29-1.32,4.79-1.42,7.33-1.29Z"/>
                <path class="cls-5" d="M18.04,3.22c.68-.4,1.36-.35,2.04,0,.35,.2,.68,.35,.74-.27-2.8-1.44-5.47-1.1-8.06,.55,.27,1.16,1.33,.43,1.58,.34,1.21-.43,2.51-.16,3.69-.61Z"/>
                <path class="cls-2" d="M18.04,3.22c-.68-.37-1.39-.02-2,.12-.44,.1-.93-.56-1.29,.12-.31,.58-.95-.06-1.38,.31-.28,.24-.4-.18-.6-.27h-.02c-.1,.09-.2,.18-.33,.2-.07,0-.13,.02-.17,.07-.06,.05-.08,.1-.06,.15,.02,.05,.04,.07,.06,.07,.81,.3,1.75,.35,2.48,.24,.74-.12,.41,.93,1.03,.58,.16-.09,.37,.48,.72,.12,.35-.37-.1-.48-.19-.71-.06-.15-.14-.3-.25-.52,.37-.08,.59,.04,.76,.29h0c.17,0,.34,0,.51,0h0c.14-.14,.1-.37,.25-.51,.21,0,.4-.05,.5-.26Z"/>
                <path class="cls-6" d="M20.83,2.94c-.17,.3-.46,.27-.74,.27-.37,.03-.77-.02-1,.56,.48-.09,.91-.2,1.28,.22,.34,.39,.84-.1,1.29,.06,.19,.07,.3-.34,.43-.55-.36-.32-.81-.42-1.25-.55Z"/>
                <path class="cls-2" d="M13.26,7.02c-.04-.24-.02-.58-.35-.55-.24,.02-.13,.34-.16,.53-.01,.08,0,.17,0,.25,.21,.02,.39-.03,.51-.22Z"/>
                <path class="cls-7" d="M17.54,3.47c-.21,.11-.25,.3-.25,.5,.21-.11,.25-.3,.25-.5Z"/>
              </g>
              <path class="cls-2" d="M12.93,5.84s.02,.09,.03,.09c.04,0,.07-.02,.11-.03-.01-.03-.02-.09-.03-.09-.04,0-.07,.02-.11,.03Z"/>
              <path class="cls-2" d="M12.24,5.75s.1-.05,.1-.06c-.02-.08-.06-.06-.1,.06h0Z"/>
            </g>
            <path class="cls-3" d="M11.74,4.48v.26c.18-.09,.17-.17,0-.26Z"/>
          </g>
        </g>
      </g>
    </g>
  </g>
</svg>