<?xml version="1.0" encoding="UTF-8"?>
<svg id="_圖層_2" data-name="圖層 2" xmlns="http://www.w3.org/2000/svg" viewBox="0 0 38.26 10.3">
  <defs>
    <style>
      .cls-1 {
        fill: #747370;
      }

      .cls-2 {
        fill: #757875;
      }

      .cls-3 {
        fill: #7b7a77;
      }

      .cls-4 {
        fill: #828380;
      }

      .cls-5 {
        fill: #717470;
      }

      .cls-6 {
        fill: #686967;
      }

      .cls-7 {
        fill: #6d706e;
      }

      .cls-8 {
        fill: #7c7974;
      }

      .cls-9 {
        fill: #7f7f80;
      }

      .cls-10 {
        fill: #777977;
      }

      .cls-11 {
        fill: #6a6c69;
      }
    </style>
  </defs>
  <g id="_圖層_1-2" data-name="圖層 1">
    <g>
      <path class="cls-2" d="M19.14,9.85c-.09-.07-.17-.13-.26-.19,.03,.14,.11,.21,.26,.19Z"/>
      <path class="cls-2" d="M18.88,9.65c-.06-.14-.16-.22-.31-.23,.06,.14,.16,.22,.31,.23Z"/>
      <g>
        <path class="cls-10" d="M19.31,4.05c.16,0,.26-.09,.31-.24-.15,.02-.26,.1-.31,.24Z"/>
        <path class="cls-10" d="M19.61,3.81c.14-.01,.23-.09,.28-.22-.15,0-.24,.07-.28,.22Z"/>
        <g>
          <path class="cls-11" d="M9.54,.81c.38-.14,.47-.37,.25-.72-.08,0-.17-.01-.25-.02,0,.25,0,.49,0,.74Z"/>
          <g>
            <g>
              <path class="cls-11" d="M10.55,.81q.83,.61,1.76,.03c-.54-.31-1.12-.5-1.75-.54-.11-.05-.24-.07-.27,.07-.06,.22,.08,.35,.26,.44Z"/>
              <path class="cls-5" d="M15.13,2.27c.09,.28,.3,.3,.54,.27-.12-.2-.32-.25-.54-.27Z"/>
            </g>
            <g>
              <path class="cls-6" d="M21.65,8.89c.47-1.43,1.52-2.33,2.81-3,.03-1.55-.1-1.69-1.11-1.23-.1,.04-.19,.09-.28,.15-.11,.1-.19,.23-.22,.38,.07,.07,.07,.13,.02,.2,0-.07,0-.15-.08-.2-.21-.23-.45-.43-.69-.62-.19-.31-.77-.04-.79-.83-.01-.74-.89-.27-1.41-.15h-.01c-.09,.09-.16,.19-.28,.23h0c-.06,.13-.16,.22-.31,.24-.51,.4-.96,.45-1.51-.04-.64-.57-1.33-1.12-2.13-1.47-.18-.1-.44-.03-.54-.27h0c-.72-.05-1.13,.6-1.75,.79-.33,.1-.39,.71-.14,.84,.62,.32,.75,1.18,1.53,1.25,.1,.05,.23-.12,.27-.03,.05,.1-.16,.08-.19,.19-.04,.08-.05,.22,0,.23,.95,.15,1.47,.97,2.21,1.37,.96,.53,.93,1.16,.82,1.97,.16,.27,.39,.45,.69,.54,.13,.04,.23,.13,.31,.23h0c.08,.08,.16,.14,.26,.2,.08,.03,.16,.06,.23,.09,.22-.04,.33-.42,.42-.36,.95,.6,1.4-.04,1.85-.69Z"/>
              <path class="cls-5" d="M17.88,8.88c.7-.76,.7-.76,.12-1.45-.08-.09-.26-.14-.19-.27,.36-.72-.07-.56-.46-.42-.18,.06-.3,.01-.44-.11-.29-.24-.04-.88-.23-.82-.48,.16-.51,.06-.61-.38-.11-.48-.21-.09-.4,.04-.24,.17-.83,.4-.56-.38h0c-.22-.08-.28-.43-.61-.34-.19,.05-.37-.07-.26-.27,.4-.74-.09-.64-.53-.59-.19,.02-.33,0-.34-.23,0-.21-.01-.52,.24-.48,.8,.13,.98-.7,1.54-.92-.83-.69-1.79-1.12-2.82-1.43-.51,.13-1,.14-1.46-.16-.11-.02-.23,0-.34,.02-.16,.06-.31,.14-.44,.26-.07,.09-.1,.19-.08,.31,.27,.6,.79,.7,1.37,.67,.43-.35,.04,.33,.28,.22,.25,.2,.58,.04,.84,.21-.78,.15-1.46,.29-2.12-.47-.7-.81-1.74-.92-2.79-.81-.53,.06-.88,.32-.92,.85-.04,.59,.47,.48,.81,.54,.51,.09,1.07,.13,.76,.9,.74,.28,1.48,.57,2.23,.83,2.29,.82,4.27,2.15,6.11,3.71,.41,.35,.87,.64,1.31,.96Z"/>
              <path class="cls-11" d="M8.23,3.37c.17-.12,.35-.23,.5-.37,.31-.31,.16-.59-.19-.62-.57-.05-1.06-.5-1.68-.17,0-.41,.11-.68,.33-.77,.59-.24,1.22-.06,1.83-.05,.43,0,.76,.67,1.12,.7,.87,.08,.24,.71,.55,1.07,.67-.24,1.4-.84,2.18-.08,.21-.42,.07-.78,.09-1.11-.45-.36-.99,.46-1.39-.14h0c-.51-.24-1.18-.18-1.51-.76-.15-.24-.38-.34-.63-.41-1-.17-2-.31-3.02-.14-.34,0-.64,.12-.89,.34-.32,.33-.64,.64-1.09,.81-.44,.15-.71,.51-.54,.98,.18,.49,.61,.31,.97,.23,1.13,.17,2.26,.34,3.38,.5Z"/>
              <path class="cls-1" d="M4.84,2.87c-.29-.08-.75,.06-.79-.4-.05-.46,.31-.67,.72-.64,.79,.05,.59-.59,.74-.99C3.85,1.38,2.38,2.26,.98,3.27,.45,3.64-.07,4.11,0,5.14c1.57-1.09,3.14-1.85,4.83-2.27Z"/>
              <path class="cls-8" d="M6.4,.51c1.04,.17,2.07,.5,3.14,.3,.04-.04,.08-.08,.12-.12,.1-.23,.07-.44-.11-.62-1.09-.17-2.14-.04-3.15,.44Z"/>
              <path class="cls-2" d="M21.65,8.89c-.38,.23-.76,.48-1.15,.69-.18,.09-.41,.09-.51-.16-.06-.15,.14-.47-.22-.42-.24,.03-.25,.26-.25,.49,0,.15-.09,.31-.14,.46,1.5,.66,1.91,.47,2.27-1.05Z"/>
              <path class="cls-8" d="M10.55,.81c-.03-.17-.26-.34,0-.51-.22-.21-.48-.25-.76-.21-.08,.24-.03,.53-.25,.72h0c.11,.2,.3,.24,.5,.25h0c.13-.16,.37-.1,.51-.25h0Z"/>
              <path class="cls-9" d="M25.45,5.1c-.28,.15-.03,.32-.01,.48,.23,.03,.43,0,.59-.19-.19-.1-.39-.2-.58-.3Z"/>
              <g>
                <g>
                  <g>
                    <path class="cls-9" d="M25.68,1.3c-.52,0-1.05-.07-1.51,.26,0,.22,.08,.52,.26,.52,1.23,0,2.12,1.19,3.14,.96,.04,0-.4-.13-.37,.12,.14,.98-.87,1.39-.99,2.21,.34,0,.67,0,1.01-.03,1.92-.21,3.76,.13,5.56,.77,.4-.32,.74-.69,1.12-1.03,.1-.05,.19-.11,.28-.16,.14-.08,.28-.17,.36-.32-.82-.74-1.75-1.31-2.74-1.79-.58-.05-1.23,.36-1.65-.5-.26-.52-.45,.67-.89,.19-.07-.08-.15-.16-.23-.23-1.1-.38-2.06-1.22-3.35-.97Z"/>
                    <path class="cls-3" d="M34.03,4.85c-.52,.06-1.1,.64-1.26,1.25,1.86,.88,3.6,2.01,5.48,2.89-.83-1.86-1.99-3.37-3.72-4.4-.2,.02-.4,.05-.5,.26h0Z"/>
                  </g>
                  <path class="cls-4" d="M25.68,1.3c1.18,.23,2.19,.89,3.31,1.28h0c.1,.27,.54,.27,.41,.67,.54-.11,.18-.66,.54-.79,.05,.05,.14,.1,.14,.14-.12,.55,0,.83,.63,.63,.37-.12,.82-.04,1.09-.43-1.58-1.11-3.33-1.71-5.28-1.7-.29,0-.59-.02-.84,.19Z"/>
                </g>
                <path class="cls-7" d="M25.45,5.1c.14-.55,.29-1.09,.43-1.64,.07-.26,.07-.51-.25-.59-.25-.06-.55-.05-.65,.22-.33,.88-1.01,.85-1.75,.76-.27-.03-.65-.1-.74,.27-.15,.58,.48,.24,.63,.48,.04,.07,.04,.16,.06,.24,.49,.44,.53-.42,1.01-.29-.27,.51,.19,.87,.27,1.33,.36,0,.67-.15,.99-.3,.1-.16,.03-.32,.01-.48Z"/>
                <g>
                  <path class="cls-10" d="M26.21,5.36c.25-.62,.95-.59,1.4-.93-.15-.39-.37-.75-.26-1.24,.35-.08,.95,.55,1.14-.33-.97-.07-2.01,.04-2.68-.9-.15-.21-.49-.19-.7-.07-.48,.29-.66-.15-.94-.34-1.63,.24-3.05,.93-4.26,2.04h1.3c-.1,.12-.14,.2-.19,.22-.17,.08-.47,0-.47,.29,0,.26,.26,.31,.44,.38,.38,.16,.83,.11,1.19,.36,.34,.23,.67,.23,1.01,0h0c.22-.19-.3-.92,.56-.69,.67,.18,1.22-.25,1.63-.88,.33,.72-.31,1.31,.03,1.9,.17,.19,.36,.33,.63,.22h.09s.08-.04,.08-.04Z"/>
                  <path class="cls-7" d="M23.34,2.88c0,.1,.04,.14,.14,.12,.04,0,.08-.04,.1-.07,.06-.09,.04-.18-.06-.19-.06,0-.12,.09-.18,.14Z"/>
                </g>
              </g>
            </g>
          </g>
        </g>
      </g>
    </g>
  </g>
</svg>