<?xml version="1.0" encoding="UTF-8"?>
<svg id="_圖層_2" data-name="圖層 2" xmlns="http://www.w3.org/2000/svg" viewBox="0 0 51.74 99.11">
  <defs>
    <style>
      .cls-1 {
        fill: #545251;
      }
    </style>
  </defs>
  <g id="_圖層_1-2" data-name="圖層 1">
    <g>
      <path class="cls-1" d="M36.45,10.79c-.09-.02-.17-.05-.26-.08-.34-.14-.52-.52-.68-.87v-.03c-.09-.16-.26-.22-.42-.15-.15,.07-.26,.26-.17,.46,.16,.34,.34,.69,.63,.95,.13,.12,.28,.21,.44,.26,.06,.02,.14,.04,.21,.05,.19,.04,.3,.07,.36,.19,.05,.12,.15,.18,.26,.18,.04,0,.08,0,.13-.03,.16-.07,.28-.26,.19-.46-.14-.34-.43-.42-.69-.49Z"/>
      <path class="cls-1" d="M36.91,11.95c-.12-.17-.34-.17-.48-.08-.15,.1-.18,.28-.08,.43,.17,.24,.23,.51,.17,.77-.06,.25-.23,.47-.48,.6-.1,.06-.16,.15-.17,.26,0,.12,.06,.24,.17,.3,.05,.03,.11,.05,.16,.05,.05,0,.11-.01,.16-.04,.4-.22,.69-.59,.8-1.03,.1-.44,.01-.89-.25-1.26Z"/>
      <path class="cls-1" d="M38.44,10.97c.67,.32,1.1,.95,1.14,1.67,.01,.21,.18,.31,.34,.31,0,0,.01,0,.02,0,.18-.01,.3-.15,.29-.33-.06-.97-.63-1.82-1.49-2.23-.11-.06-.23-.05-.33,.02-.1,.07-.16,.19-.15,.31,0,.11,.07,.19,.17,.24Z"/>
      <path class="cls-1" d="M39.76,14.48c.12-.18,.24-.37,.25-.64,0-.18-.11-.32-.3-.33,0,0-.01,0-.02,0-.16,0-.33,.11-.34,.31,0,.16-.11,.31-.21,.46-.11,.16-.22,.33-.25,.55-.04,.29,.07,.53,.17,.76,.07,.17,.14,.33,.15,.5,.01,.12,.08,.22,.19,.28,.05,.02,.1,.03,.15,.03,.07,0,.14-.02,.19-.06,.09-.06,.13-.16,.12-.27-.02-.19-.09-.37-.17-.56-.11-.26-.21-.52-.12-.73,.05-.11,.11-.21,.17-.31Z"/>
      <path class="cls-1" d="M37.36,9.55c.11,0,.17,.02,.23,.07,.07,.06,.15,.09,.23,.09s.17-.03,.23-.09c.06-.06,.1-.16,.09-.25,0-.09-.04-.17-.1-.22-.21-.18-.45-.26-.7-.25-.22,.01-.32,.2-.31,.36,.01,.17,.14,.29,.3,.29h.02Z"/>
      <path class="cls-1" d="M38.67,7.61c.25,0,.49,.07,.67,.21,.06,.05,.14,.08,.21,.08,.04,0,.08,0,.12-.02,.12-.04,.2-.15,.22-.26,.02-.1-.02-.2-.11-.27-.33-.27-.73-.41-1.12-.39-.21,0-.32,.18-.32,.35,0,.16,.12,.33,.32,.31Z"/>
      <path class="cls-1" d="M41.84,7.31s-.06,0-.08,0c-.22,.01-.32,.19-.31,.36,0,.08,.03,.15,.09,.21,.06,.06,.14,.09,.24,.09,.35-.01,.67,.13,.86,.41,.06,.09,.16,.14,.27,.14,0,0,.02,0,.03,0,.12-.01,.24-.09,.29-.19,.04-.1,.03-.21-.03-.3-.31-.45-.81-.72-1.34-.72Z"/>
      <path class="cls-1" d="M43.22,10.95c.04-.08,.04-.16,0-.23-.18-.44-.51-.75-.95-.91-.17-.06-.33,.02-.39,.19-.05,.16,0,.36,.2,.43,.23,.08,.43,.26,.52,.48,.06,.14,.18,.23,.31,.23,.03,0,.06,0,.09-.01,.09-.03,.17-.1,.21-.18Z"/>
      <path class="cls-1" d="M45.18,9.27c-.05-.06-.13-.1-.22-.1-.09,0-.19,.03-.25,.09-.12,.12-.12,.32,0,.46l.3,.35h0c.05,.06,.13,.1,.22,.1h.01c.09,0,.18-.03,.24-.09,.12-.12,.13-.32,0-.46l-.3-.35Z"/>
      <path class="cls-1" d="M34.87,7.52s.03,0,.05,0c.13-.02,.22-.09,.27-.21,.27-.66,1.09-.86,1.8-1.04,.14-.04,.28-.07,.41-.11,.92-.26,1.84-.14,2.76,.36,.01,0,.03,0,.04,.01,0,0,.01,.02,.02,.03,.08,.06,.19,.07,.29,.03,.88-.37,1.82-.32,2.64,.14h0c.05,.03,.11,.04,.16,.04,.12,0,.23-.08,.29-.18,.08-.14,.06-.34-.12-.44-.96-.54-2.04-.61-3.05-.23-1.1-.59-2.22-.69-3.52-.3-.17,.05-.33,.09-.48,.13-.79,.2-1.47,.38-1.87,1.34-.04,.1-.03,.21,.03,.29,.06,.08,.16,.12,.27,.12Z"/>
      <path class="cls-1" d="M47.59,10.71c-.02,.08-.01,.16,.03,.23,.04,.08,.11,.13,.21,.16,.45,.11,.75,.42,.8,.83,.01,.13-.01,.25-.04,.38-.03,.14-.06,.28-.05,.43,.01,.16,.05,.22,.11,.3,.02,.02,.03,.05,.06,.09,.16,.26,.25,.44,.24,.74,0,.18,.12,.32,.3,.33h.02c.16,0,.33-.11,.34-.32,.01-.31,.01-.66-.19-.96-.06-.09-.11-.14-.15-.17-.05-.04-.05-.05-.03-.26,0-.06,.02-.12,.03-.17,.02-.11,.04-.22,.03-.35-.03-.73-.54-1.32-1.3-1.5-.2-.04-.36,.09-.4,.25Z"/>
      <path class="cls-1" d="M44.16,7.26c.36,0,.69,.17,.91,.43,.2,.24,.27,.53,.24,.84-.03,.05-.04,.11-.04,.17,0,.12,.07,.19,.16,.24,0,0,0,0,0,0,.07,.06,.15,.08,.23,.08,.04,0,.07,0,.11-.02,0,0,.01-.01,.02-.02,.94,0,1.47,.31,1.59,.91,.03,.15,.15,.25,.29,.25,.02,0,.04,0,.06,0,.17-.03,.32-.19,.28-.4-.16-.85-.91-1.35-2.04-1.41-.02-.4-.16-.79-.42-1.1-.34-.41-.84-.65-1.4-.66h0c-.2,0-.31,.16-.31,.32,0,.16,.11,.34,.32,.34Z"/>
      <path class="cls-1" d="M46.24,11.47h0c-.16-.07-.32,0-.39,.16-.07,.16-.02,.38,.18,.46,.63,.27,1.01,.98,.88,1.66-.04,.21,.11,.37,.28,.4,.02,0,.04,0,.06,0,.06,0,.11-.01,.15-.04,.07-.04,.12-.12,.14-.21,.19-1.03-.35-2.03-1.31-2.44Z"/>
      <path class="cls-1" d="M45.51,15.07c-.12,.04-.21,.14-.23,.26-.02,.11,.02,.21,.1,.29,.4,.36,.59,.85,.54,1.39-.01,.11,.03,.21,.11,.27,.05,.04,.12,.06,.19,.06,.05,0,.1-.01,.15-.03,.11-.05,.19-.15,.2-.27,.08-.71-.2-1.42-.74-1.89-.09-.08-.21-.1-.32-.07Z"/>
      <path class="cls-1" d="M43.05,16.52c0,.1,.04,.19,.1,.25,.5,.43,.63,1.02,.36,1.59-.05,.11-.04,.23,.03,.33,.07,.09,.17,.15,.28,.15,0,0,.02,0,.03,0,.11,0,.19-.07,.24-.18,.35-.74,.24-1.55-.25-2.14,.39-.49,.41-1.14,.02-1.7-.12-.17-.33-.17-.47-.08-.15,.1-.18,.28-.08,.43,.28,.41,.23,.81-.15,1.11-.06,.05-.1,.14-.1,.23Z"/>
      <path class="cls-1" d="M38.58,19.16c.02,.19,.15,.31,.33,.31,.09,0,.19-.05,.25-.12,.06-.06,.08-.15,.07-.23-.01-.1,.02-.22,.12-.26,.17-.07,.26-.23,.21-.4-.02-.09-.09-.17-.18-.21-.08-.04-.16-.04-.24-.01-.38,.16-.62,.53-.57,.92Z"/>
      <path class="cls-1" d="M34.76,15.81c.05,.31,.22,.58,.47,.73,.11,.07,.27,.09,.44,.12,.18,.02,.4,.06,.44,.15,.06,.15,.19,.21,.32,.21,.05,0,.1,0,.14-.03,.16-.07,.23-.23,.16-.39-.17-.4-.5-.5-.84-.55-.21-.03-.37-.11-.45-.22-.05-.08-.07-.17-.04-.29,.07-.28,.39-.39,.49-.42,.18-.05,.27-.22,.22-.41-.05-.18-.21-.28-.4-.23-.55,.16-1.06,.66-.96,1.32Z"/>
      <path class="cls-1" d="M35.38,20.98c.05,.73,.43,1.36,1.05,1.72,.05,.03,.11,.05,.17,.05,.05,0,.1-.01,.15-.04,.11-.06,.17-.18,.18-.3,0-.11-.06-.21-.16-.27-.43-.25-.69-.68-.73-1.17-.01-.17-.12-.27-.25-.3,0,0,.02,0,.02,0,.12-.02,.21-.1,.24-.22,.04-.13,.17-.23,.29-.33,.06-.04,.11-.09,.16-.14,.2-.19,.32-.4,.36-.62,.04-.23-.02-.47-.17-.64-.14-.17-.34-.26-.56-.26h0c-.08,0-.14,.03-.2,.07,.03-.05,.06-.1,.06-.17-.02-.29,.09-.54,.32-.72,.14-.11,.15-.29,.04-.42-.11-.14-.32-.2-.49-.06-.36,.29-.56,.75-.53,1.22,.01,.21,.18,.31,.34,.31,0,0,.01,0,.02,0,.07,0,.12-.04,.17-.08-.03,.05-.05,.12-.05,.18,0,.08,.03,.16,.08,.22,.06,.07,.14,.1,.24,.1,0,0,0,0,0,0,.06,0,.07,.02,.08,.03,.03,.07-.03,.23-.1,.31-.05,.06-.11,.1-.17,.15l-.07,.06c-.16,.14-.34,.31-.43,.59-.04,.11-.02,.22,.06,.3,.05,.05,.11,.08,.19,.1-.18,.02-.3,.15-.29,.32Z"/>
      <path class="cls-1" d="M39.72,21.76c.09,0,.17-.04,.23-.12,.26-.33,.39-.72,.37-1.11-.01-.21-.18-.31-.34-.31,0,0-.01,0-.02,0-.08,0-.15,.04-.21,.09-.06,.06-.09,.15-.09,.24,.02,.25-.05,.48-.19,.65-.13,.17-.07,.38,.06,.49,.06,.05,.13,.07,.19,.07Z"/>
      <path class="cls-1" d="M41.83,23.65c.06,.07,.16,.11,.25,.11,.07,0,.15-.03,.22-.09,.33-.3,.41-.78,.22-1.2-.05-.1-.14-.17-.24-.18-.11,0-.24,.05-.31,.15-.07,.1-.08,.22-.03,.33,.06,.14,.03,.3-.1,.42-.13,.12-.14,.31-.01,.45Z"/>
      <path class="cls-1" d="M42.93,23.22c.05,.11,.16,.18,.28,.2,.01,0,.03,0,.04,0,.11,0,.21-.05,.27-.14,.3-.42,.37-.97,.17-1.44-.08-.2-.3-.25-.46-.18-.16,.07-.23,.23-.16,.39,.13,.31,.1,.62-.1,.88-.07,.09-.08,.2-.04,.29Z"/>
      <path class="cls-1" d="M43.63,21.19s.09,.03,.14,.03c.11,0,.21-.06,.27-.18,.2-.42,.19-.87-.01-1.28-.08-.16-.25-.22-.41-.14-.15,.08-.25,.26-.16,.46,.1,.21,.11,.45,.01,.66-.09,.19,.02,.38,.18,.46Z"/>
      <path class="cls-1" d="M44.94,21.27c.06,.04,.13,.06,.2,.06,.1,0,.2-.04,.27-.15,.21-.32,.21-.74,0-1.05-.07-.1-.19-.15-.3-.14-.12,.01-.24,.09-.29,.19-.04,.1-.03,.2,.03,.3,.08,.12,.08,.24,0,.35-.1,.15-.06,.33,.09,.43Z"/>
      <path class="cls-1" d="M43.94,23.14c-.06,.16,0,.37,.2,.44,.13,.05,.27,.07,.4,.07,.28,0,.56-.11,.78-.32,.32-.3,.44-.76,.31-1.18-.06-.2-.26-.27-.41-.22-.08,.02-.14,.07-.19,.14-.05,.08-.06,.17-.03,.26,.06,.2,.01,.39-.12,.52-.14,.14-.35,.17-.54,.1-.16-.06-.33,.02-.39,.18Z"/>
      <path class="cls-1" d="M49.3,16.93c-.1-.62-.52-1.17-1.28-1.68h0c-.15-.1-.33-.06-.43,.09-.09,.14-.09,.35,.09,.47,.28,.18,.67,.47,.87,.89,.23,.47,.09,.8-.49,1.15-.03,.02-.06,.05-.08,.08-.09,.04-.16,.1-.17,.21-.08,.46,.07,.82,.45,1.07,.18,.12,.38,.28,.39,.42,0,.08-.06,.17-.18,.26-.08,.06-.16,.11-.24,.16-.04,.03-.09,.06-.13,.09-.11,0-.21,.04-.27,.15-.19,.32-.07,.58,.08,.82,.13,.2,.19,.39,.15,.52-.02,.08-.09,.14-.2,.19-.13,.06-.23,.02-.4-.05-.07-.03-.14-.06-.22-.07-.31-.07-.57,.01-.75,.24-.07,.09-.12,.2-.16,.31-.06,.15-.11,.28-.22,.33-.16,.07-.22,.23-.16,.39,.05,.12,.18,.22,.32,.22,.04,0,.09,0,.14-.03,.25-.11,.32-.29,.39-.45,.04-.1,.07-.19,.15-.26,.09-.09,.3-.05,.51-.01,.22,.04,.45,.08,.64,0,.35-.13,.6-.44,.65-.81,.03-.18,0-.37-.06-.54-.02-.05-.07-.12-.12-.2-.03-.05-.08-.13-.12-.19,.07-.06,.15-.11,.23-.16,.29-.19,.63-.4,.66-.85,.02-.25-.06-.49-.22-.66-.1-.11-.22-.18-.34-.25-.21-.12-.32-.21-.33-.38,.47-.29,.98-.72,.86-1.46Z"/>
      <path class="cls-1" d="M49.2,14.36c-.15,.08-.25,.26-.16,.45,.19,.38,.52,.59,.86,.79l.05,.03c.24,.13,.48,.27,.55,.52,.07,.25-.04,.52-.31,.81-.13-.03-.26,.02-.34,.12-.11,.14-.1,.32,.04,.43,.31,.26,.32,.55,.02,1.01-.08,.13-.14,.21-.15,.38-.02,.18,.04,.31,.09,.44,.02,.04,.03,.08,.05,.12,.16,.45,.07,.76-.28,.94-.1,.06-.16,.15-.17,.26,0,.12,.06,.24,.17,.3,.05,.03,.11,.05,.16,.05,.05,0,.11-.01,.16-.04,.34-.18,.56-.45,.66-.78,.09-.3,.02-.5-.04-.7-.03-.09-.06-.19-.08-.29-.03-.21,.05-.38,.15-.57,.09-.19,.19-.39,.18-.64,0-.2-.06-.39-.16-.56,.4-.43,.71-1.08,.41-1.66-.17-.34-.48-.51-.77-.68-.28-.16-.54-.31-.67-.58-.08-.16-.26-.22-.42-.13Z"/>
      <path class="cls-1" d="M32.88,13.26c-.41,.89-.55,1.81-.42,2.81,.03,.23,.32,2.25,1.37,2.8,.17,.09,.35,.13,.54,.13,.22,0,.45-.06,.69-.19,.1-.05,.16-.15,.17-.25,0-.12-.06-.24-.16-.31-.1-.07-.22-.07-.33-.01-.24,.13-.46,.14-.66,.02-.64-.36-.95-1.88-1-2.57-.06-.77,.07-1.49,.38-2.13,.05-.1,.1-.2,.15-.3,.18-.35,.33-.65,.4-1.09,.02-.13,.04-.25,.06-.37,.08-.59,.15-1.05,.52-1.54,.09-.11,.07-.24-.01-.35,.02,0,.05,.02,.07,.02,.06,0,.12-.02,.17-.05,.14-.08,.23-.26,.13-.45-.21-.38-.21-.81,.02-1.18,.05-.08,.06-.18,.03-.26-.03-.07-.08-.14-.15-.18-.07-.04-.15-.05-.23-.04-.09,.02-.17,.07-.22,.15-.34,.57-.34,1.26-.02,1.84,0,0,.01,0,.01,.01-.12-.03-.26,0-.35,.12-.32,.42-.52,.83-.6,1.28-.03,.14-.04,.28-.05,.41v.16c-.02,.11-.04,.2-.06,.3-.02,0-.04,0-.06-.02-.1-.06-.22-.06-.32,0-.11,.06-.17,.18-.17,.3,0,.11,.06,.21,.16,.27,.06,.04,.13,.06,.2,.08-.05,.11-.1,.22-.16,.35l-.1,.22Z"/>
      <path class="cls-1" d="M18.81,17.68c-.09-.16-.27-.21-.43-.12-.14,.08-.24,.26-.14,.45,1.29,2.38,2.83,3.52,4.82,3.52,.24,0,.48-.02,.73-.05,2.26-.29,4.24-1.7,5.31-3.78,.06-.11,.05-.23-.01-.33-.07-.1-.19-.16-.31-.16-.11,0-.2,.07-.25,.17-.94,1.83-2.68,3.11-4.65,3.42-2.13,.34-3.74-.65-5.07-3.12Z"/>
      <path class="cls-1" d="M28.05,13.68c-.23,.77-.43,1.22-1.16,1.07-.22-.05-.36,.1-.4,.27-.02,.08,0,.16,.03,.22,.04,.07,.12,.13,.21,.15,.15,.03,.3,.05,.44,.05,.04,0,.08-.02,.12-.02-.03,.09-.03,.18,.04,.26l.86,1.19c.07,.09,.16,.14,.27,.14,.01,0,.03,0,.04,0,.06,0,.11-.03,.16-.06,.06,.02,.12,.05,.18,.07,.17,.07,.35,.14,.52,.21-.11,.49-.27,.94-.52,1.37-.09,.16-.04,.35,.12,.44,.06,.03,.11,.05,.17,.05,.11,0,.21-.06,.27-.16,.26-.46,.44-.94,.56-1.44,.86,.37,1.69,.79,2.36,1.4,.06,.06,.14,.09,.22,.09,.03,0,.07,0,.1-.02,.12-.04,.21-.14,.24-.25,.02-.11-.01-.21-.1-.29-1.05-.95-2.42-1.49-3.74-2.01-.17-.07-.34-.13-.51-.2,0,0-.01,0-.02,0l-.63-.87h0s-.04-.03-.06-.05c.12-.06,.24-.11,.34-.2,.37-.32,.45-.73,.54-1.12,.05-.23,.1-.47,.21-.68,.13-.26,.28-.51,.43-.75,.25-.4,.5-.81,.65-1.3,.22-.73,.28-1.5,.19-2.35h0c-.02-.21-.21-.31-.39-.3-.17,.02-.29,.16-.27,.33,.13,1.2-.1,2.3-.66,3.26-.08,.13-.16,.26-.25,.38-.16,.23-.33,.47-.43,.75-.05,.13-.09,.27-.13,.41Z"/>
      <path class="cls-1" d="M16.68,18s.07,0,.11-.02c.16-.05,.32-.11,.5-.17,.04,.13,.08,.26,.15,.38,.06,.1,.16,.16,.27,.16,.12,0,.24-.07,.3-.17,.06-.1,.06-.21,0-.32-.05-.09-.08-.18-.1-.27,.82-.31,1.69-.73,2.33-1.32,0,.11,0,.22,0,.33,0,.21,.18,.32,.34,.32h.02c.08,0,.16-.03,.21-.09,.06-.06,.1-.15,.09-.24-.06-1.23-.07-2.47-.06-3.7,.16,.26,.35,.5,.6,.73,1.19,1.09,2.73,1.71,4.16,1.71,.1,0,.19,0,.29,0,.22-.01,.32-.2,.31-.36-.01-.17-.14-.29-.31-.29h-.02c-1.35,.08-2.89-.5-3.98-1.52-1.03-.96-1.12-2.23-1.01-3.59,.02,.17,.16,.27,.3,.27h.01c.16,0,.33-.11,.33-.32,0-.21,.04-.4,.11-.61h0c.04-.11,.01-.22-.06-.3-.08-.09-.21-.12-.33-.1-.11,.03-.2,.11-.24,.22,0,.02,0,.04,0,.06-.01-.03-.02-.07-.04-.09-.08-.1-.19-.15-.32-.12-.26,.04-.49-.01-.69-.16-.27-.2-.46-.56-.52-.97-.03-.23-.06-.52,.03-.73,.09-.23,.25-.37,.45-.37h.02c.2,0,.4,.13,.5,.35,.05,.1,.14,.17,.25,.17h.02c.11,0,.21-.06,.28-.15,.02,.04,.04,.08,.07,.1,.07,.06,.15,.08,.23,.08,.04,0,.07,0,.11-.02,.09-.03,.15-.11,.17-.21,.05,.1,.15,.17,.26,.19,.02,0,.03,0,.05,0,.15,0,.26-.1,.29-.26,.08-.54,0-1.03-.23-1.51-.08-.16-.25-.22-.41-.14-.07,.03-.13,.09-.16,.17-.03-.06-.05-.13-.09-.19-.09-.16-.29-.21-.45-.11-.16,.09-.21,.29-.12,.44,.19,.32,.27,.67,.25,1.02-.25-.43-.64-.65-1.11-.58,.05-.06,.08-.13,.07-.22-.08-1.41,.33-3.25,1.42-4.2,.63-.54,1.41-.72,2.3-.55h0c.12,.03,.23-.01,.31-.1,.08-.09,.11-.23,.07-.34-.03-.1-.12-.17-.23-.2-1.1-.23-2.09,.02-2.87,.69-1.36,1.18-1.75,3.27-1.67,4.7,.01,.18,.14,.28,.27,.3-.4,.18-.7,.57-.76,1.05-.09,.73,.15,1.46,.63,1.92,.25,.24,.54,.38,.87,.43-.06,.67-.09,1.36,0,2.03-.03,.05-.06,.1-.06,.17-.04,1.31-.02,2.64,.02,3.96-.02,.02-.04,.03-.06,.05-.8,1.03-2.59,1.63-3.54,1.95-.2,.07-.26,.27-.21,.43,.05,.14,.16,.22,.29,.22Zm4.21-8.69c0-.06,.01-.12,.02-.18,0,0,.01-.01,.02-.02-.01,.07-.03,.13-.03,.2Z"/>
      <path class="cls-1" d="M19.85,7.85c.04,.09,.12,.16,.21,.18,.03,0,.06,.01,.08,.01,.13,0,.25-.08,.31-.23,.15-.36,.07-.79-.2-1.1-.07-.09-.17-.13-.28-.1-.12,.02-.22,.11-.26,.23-.04,.11-.02,.23,.06,.33,.14,.16,.09,.35,.06,.44-.03,.08-.03,.16,.01,.24Z"/>
      <path class="cls-1" d="M21.52,9.72h-.01c-.08,0-.16,.03-.21,.09-.06,.06-.1,.15-.09,.24,.01,.37-.05,.72-.19,1.06-.07,.16,0,.32,.16,.39,.04,.02,.09,.03,.14,.03,.13,0,.26-.07,.32-.21,.17-.41,.24-.83,.22-1.28,0-.21-.18-.32-.34-.32Z"/>
      <path class="cls-1" d="M22.11,12.72s.07,0,.11-.02c.15-.05,.27-.2,.21-.4-.12-.39-.13-.76-.04-1.15,.05-.21-.09-.36-.25-.4-.18-.04-.34,.06-.38,.23-.12,.51-.1,1.01,.05,1.5,.05,.16,.18,.23,.31,.23Z"/>
      <path class="cls-1" d="M22.74,13.17s.07,.02,.11,.02c.13,0,.26-.07,.31-.23,.15-.45,.1-.93-.15-1.35-.06-.1-.16-.16-.27-.16h0c-.12,0-.24,.07-.3,.17-.06,.1-.05,.21,0,.32,.15,.26,.18,.54,.08,.83-.06,.17,.03,.34,.2,.39Z"/>
      <path class="cls-1" d="M26.48,13.81c.1,0,.19-.01,.29-.04,.2-.05,.27-.23,.23-.39-.04-.16-.19-.3-.4-.24-.17,.04-.35-.01-.48-.12,.18,.02,.35,.03,.52,.03,.46,0,.88-.06,1.2-.12,.11-.02,.2-.09,.23-.19,.04-.11,.01-.24-.07-.34-.08-.09-.19-.13-.32-.11-.43,.08-1.86,.27-2.7-.33,0-.09-.05-.17-.11-.23-.06-.06-.13-.09-.21-.09h0c-.08,0-.16,.04-.22,.1-.11,.12-.19,.26-.23,.41-.03,.12,0,.23,.08,.31,.07,.07,.16,.1,.25,.1,.03,0,.06,0,.09-.01,.02,0,.04-.02,.06-.04,.2,.13,.41,.23,.63,.31,0,.03-.02,.05,0,.08,.15,.54,.64,.9,1.18,.9Z"/>
      <path class="cls-1" d="M27.41,11.04c-.08,.14-.23,.21-.4,.18-.08,0-.16,.01-.22,.07-.07,.07-.12,.16-.12,.26,0,.17,.13,.3,.31,.33,.04,0,.08,0,.12,0,.35,0,.69-.2,.88-.51,.1-.18,.01-.37-.12-.44-.16-.09-.35-.05-.44,.11Z"/>
      <path class="cls-1" d="M29.01,8.78h-.02s-.08-.02-.11-.01c-.13,0-.25,.06-.33,.16-.09,.12-.12,.28-.07,.43,.04,.15,.16,.26,.3,.3,.04,.01,.09,.02,.13,.02,.1,0,.19-.03,.27-.09,.11-.08,.17-.21,.18-.34,.01-.13-.04-.27-.13-.36-.06-.07-.15-.1-.23-.1Z"/>
      <path class="cls-1" d="M25.71,8.64c-.11-.05-.23-.04-.34,.02-.11,.06-.19,.16-.22,.29l-.48-.06,.47,.22c0,.09,.05,.17,.11,.24,.08,.09,.2,.14,.32,.14,.01,0,.03,0,.04,0,.13-.01,.24-.08,.3-.19,0,0,0-.02,.01-.02,.06-.07,.09-.17,.06-.28-.04-.15-.15-.28-.28-.34Z"/>
      <path class="cls-1" d="M26.19,7.89c.05-.11,.04-.25-.02-.35-.06-.09-.17-.13-.27-.12-.2,.02-.4,0-.59-.06-.11-.04-.22-.01-.3,.06-.09,.08-.13,.21-.1,.33,.03,.11,.11,.2,.22,.23,.2,.06,.41,.09,.62,.09,.06,0,.12,0,.18,0,.12-.01,.22-.08,.27-.19Z"/>
      <path class="cls-1" d="M29.55,7.8c-.05-.17-.21-.27-.39-.23-.11,.02-.23,0-.34-.06-.1-.06-.22-.06-.32,0-.11,.06-.17,.18-.17,.3,0,.11,.06,.21,.16,.26,.18,.1,.38,.15,.58,.15,.08,0,.16,0,.24-.02,.08-.02,.15-.06,.2-.14,.05-.08,.07-.18,.04-.27Z"/>
      <path class="cls-1" d="M22.6,5.31c.07,0,.14-.02,.19-.06,.08-.06,.12-.16,.11-.27-.09-.77-.44-1.43-1.01-1.91-.16-.14-.38-.08-.49,.05-.11,.14-.1,.32,.04,.43,.46,.38,.74,.88,.81,1.45,.01,.12,.09,.22,.2,.27,.05,.02,.1,.03,.15,.03Z"/>
      <path class="cls-1" d="M25.36,4.71c.15,0,.27-.1,.29-.26,.02-.17-.08-.37-.3-.4-.96-.12-1.82-.57-2.5-1.29-.14-.15-.33-.12-.45-.01-.12,.11-.17,.31-.02,.47,.78,.83,1.79,1.34,2.94,1.48,.02,0,.03,0,.04,0Z"/>
      <path class="cls-1" d="M27.5,3.55c-1.46-.04-2.76-.52-3.89-1.42-.16-.13-.38-.08-.49,.06-.11,.14-.09,.31,.04,.42,1.26,1.02,2.72,1.56,4.32,1.6h0c.2,0,.31-.16,.31-.31,0-.16-.11-.34-.32-.34Z"/>
      <path class="cls-1" d="M27.43,2.48c-.16-.14-.37-.09-.48,.03-.12,.14-.11,.32,.02,.44,.65,.58,1.44,.89,2.22,1.18,.17,.07,.34,.13,.51,.2,.5,1.09,.57,2.28,.2,3.44-.06,.17,.03,.34,.21,.4,.03,.01,.07,.02,.11,.02,.13,0,.26-.07,.31-.23,.34-1.07,.33-2.18,0-3.24,.28,.16,.56,.33,.81,.55,.07,.06,.14,.09,.22,.09,.1,0,.19-.05,.26-.12,.05-.06,.08-.14,.09-.21,0-.09-.04-.17-.11-.23-.65-.59-1.46-.9-2.23-1.2-.75-.29-1.52-.58-2.13-1.13Z"/>
      <path class="cls-1" d="M29,2.86c-.04,.16,.03,.34,.23,.39,.69,.17,1.3,.47,1.84,.9,.06,.05,.14,.08,.21,.08,.04,0,.08,0,.12-.02,.12-.05,.2-.15,.22-.26,.02-.1-.03-.2-.11-.27-.63-.51-1.35-.86-2.11-1.05-.2-.05-.36,.09-.4,.25Z"/>
      <path class="cls-1" d="M24.82,.72c2.12,.04,4.1,.77,5.73,2.12,.06,.05,.14,.08,.21,.08,.04,0,.08,0,.12-.02,.12-.04,.2-.15,.22-.26,.02-.1-.02-.2-.11-.28C29.23,.9,27.1,.11,24.83,.07h0c-.2,0-.31,.16-.32,.32,0,.16,.11,.33,.32,.34Z"/>
      <path class="cls-1" d="M17.99,18.71h0c-.12,0-.24,.07-.3,.17-.06,.1-.06,.21,0,.32,.34,.61,.77,1.16,1.26,1.65,.06,.06,.14,.09,.22,.09,0,0,.02,0,.03,0,.08,0,.15-.04,.21-.1,.06-.06,.09-.13,.1-.21,0-.09-.03-.18-.1-.24-.45-.45-.84-.96-1.16-1.51-.06-.1-.16-.16-.27-.16Z"/>
      <path class="cls-1" d="M15.5,20.52c-.12,.02-.21,.1-.25,.22-.75,2.16-1.14,4.37-1.19,6.62-.19-.13-.4-.24-.63-.32-.11-.04-.22-.01-.3,.06-.09,.08-.13,.21-.1,.33,.02,.12,.1,.2,.22,.24,.28,.09,.53,.25,.75,.47,.02,.02,.04,.02,.07,.03,0,.66,.04,1.33,.11,1.99,.02,.2,.19,.31,.35,.31,.01,0,.03,0,.04,0,.17-.02,.29-.16,.27-.33-.33-3.14,.02-6.23,1.05-9.21,.04-.11,.02-.22-.05-.3-.08-.09-.2-.13-.33-.11Z"/>
      <path class="cls-1" d="M9.15,24.08c-.12,0-.24,.05-.31,.15-.07,.1-.09,.22-.04,.34,.48,1.1,1.29,1.99,2.08,2.85,.96,1.06,1.86,2.05,2.25,3.41,.04,.14,.16,.23,.31,.23,.03,0,.06,0,.1-.01,.18-.05,.28-.22,.23-.4-.25-.9-.74-1.65-1.29-2.35,.03,.02,.06,.05,.1,.05,.01,0,.02,0,.03,0,.16,0,.33-.11,.35-.31,.05-.52,.11-1.01,.18-1.5,.14,.06,.28,.13,.42,.22,.06,.04,.12,.06,.18,.06,.1,0,.19-.05,.26-.15,.09-.14,.09-.35-.09-.47-.2-.13-.42-.23-.65-.32,.11-.55,.27-1.08,.5-1.59,.01,0,.03,0,.04-.01,.08-.06,.13-.16,.11-.27v-.06c-.11-1.02-.22-2.07,.11-3.03,.3-.86,1.01-1.56,1.7-2.24,.13-.13,.25-.25,.37-.37,.07-.07,.1-.16,.09-.25,0-.08-.04-.15-.1-.21-.06-.06-.13-.09-.21-.1-.09-.02-.18,.03-.24,.1-.12,.12-.25,.25-.37,.37-.67,.67-1.37,1.36-1.74,2.22-.48,1.1-.38,2.37-.27,3.42,0,0,0,0,0,0-.62,1.3-.79,2.71-.92,4.16,0,.03,.02,.06,.03,.09-.29-.35-.59-.7-.89-1.03-.77-.86-1.57-1.74-2.05-2.82-.04-.1-.13-.17-.23-.18Z"/>
      <path class="cls-1" d="M6.03,20.96s.07,.02,.11,.02c.08,0,.17-.03,.23-.09,.09-.08,.14-.19,.11-.32-.04-.24-.06-1.03,.12-1.16,0,0,.04-.02,.11,.02,.09,.05,.2,.05,.29,.01-.06,.08-.08,.17-.05,.27,.06,.2,.08,.42,.11,.65,.05,.41,.1,.84,.35,1.2,.12,.18,.29,.3,.44,.42,.06,.05,.13,.1,.19,.15,.51,.44,.7,.93,.58,1.53-.04,.21,.11,.36,.27,.4,.02,0,.05,0,.07,0,.06,0,.11-.01,.15-.04,.07-.04,.13-.12,.14-.21,.14-.72,0-1.36-.42-1.84-.15-.17-.3-.3-.45-.42-.27-.23-.51-.42-.62-.85-.04-.17-.06-.34-.08-.53-.02-.21-.05-.43-.11-.65-.03-.11-.11-.2-.22-.22-.08-.02-.17,0-.24,.04,.06-.06,.1-.14,.1-.22,0-.11-.06-.21-.16-.27-.18-.11-.39-.13-.58-.07-.22,.06-.4,.23-.51,.44-.18,.36-.22,.85-.1,1.48,.02,.11,.09,.2,.19,.23Z"/>
      <path class="cls-1" d="M2.15,19.69s.07,.02,.11,.02c.08,0,.17-.03,.23-.09,.09-.08,.13-.19,.11-.32-.04-.22-.05-.42-.03-.63,0-.08,.01-.16,.04-.24,0-.03,.02-.06,.04-.08v-.04h.02s.06,.07,.1,.1c.06,1.29,.31,2.34,.79,3.27,.05,.1,.14,.16,.25,.17,0,0,.01,0,.02,0,.11,0,.22-.06,.29-.16,.06-.1,.07-.22,.02-.33-.37-.73-.58-1.52-.67-2.49,.02-.02,.04-.03,.05-.06,.03-.07,.08-.09,.11-.09,.06,0,.11,.01,.15,.07,.08,.12,.2,.16,.31,.14-.09,.08-.15,.19-.11,.32,.12,.36,.14,.77,.17,1.17,0,.13,.02,.27,.03,.39h0s.04,.07,.05,.1c0,.06,.03,.12,.08,.18,.16,.17,.27,.36,.32,.6,.03,.11,.1,.2,.2,.23,.03,0,.06,.01,.1,.01,.05,0,.09-.03,.14-.06,0,.04,0,.08,0,.12,.04,.1,.12,.17,.23,.18,.53,.09,1,.28,1.44,.57h0c.06,.04,.11,.05,.17,.05,.1,0,.19-.05,.26-.15,.09-.14,.09-.35-.09-.47-.27-.18-.56-.32-.86-.43,.04-.1,.09-.2,.12-.31,.03-.12,0-.23-.08-.31-.09-.09-.22-.12-.34-.09-.11,.03-.18,.11-.21,.23-.03,.11-.06,.21-.11,.3-.05-.01-.09-.03-.14-.04-.07-.01-.14,0-.2,.03,0-.02,0-.03,0-.05-.07-.31-.23-.6-.45-.84,0-.1-.02-.21-.02-.31-.03-.44-.06-.9-.19-1.32-.06-.17-.21-.22-.35-.21,.13-.1,.17-.27,.08-.41-.17-.27-.45-.4-.77-.38-.07,0-.13,.03-.19,.05-.03-.06-.08-.1-.14-.12-.07-.16-.17-.29-.33-.35-.24-.08-.5-.01-.69,.18-.3,.31-.38,.83-.23,1.61,.02,.11,.09,.2,.19,.23Z"/>
      <path class="cls-1" d="M.94,20.36c.07,.02,.15,0,.21-.04,.07-.04,.12-.12,.13-.21,.03-.19,.07-.23,.09-.24,0,0,.03,0,.07,.02,.05,.03,.16,.24,.19,.31l.04,.07c.08,.15,.16,.31,.24,.46l.1,.2c.22,.44,.48,.91,.9,1.27,.07,.06,.14,.08,.21,.08,.1,0,.2-.05,.27-.12,.12-.14,.1-.32-.03-.43-.39-.33-.6-.77-.82-1.23-.16-.33-.33-.68-.57-.98-.29-.37-.58-.36-.73-.32-.29,.07-.52,.38-.59,.77-.04,.21,.12,.37,.29,.4Z"/>
      <path class="cls-1" d="M2.98,23.05c0-.12-.04-.23-.14-.3-.36-.25-.67-.56-.9-.94-.06-.1-.16-.15-.27-.15h-.02c-.12,0-.24,.08-.29,.18-.05,.1-.04,.21,.02,.31,.29,.46,.67,.84,1.12,1.15,.06,.04,.12,.06,.18,.06,.04,0,.08,0,.12-.03,.11-.05,.18-.16,.19-.29Z"/>
      <path class="cls-1" d="M1.24,22.63c-.25-.26-.42-.54-.51-.85-.02-.08-.04-.16-.05-.25,.05-.09,.08-.11,.08-.12,0,0,.01,.01,.02,.03l.04,.04s.08,.07,.12,.11,.08,.08,.12,.11h0c.09,.07,.19,.08,.29,.04,.11-.04,.18-.15,.2-.28,.02-.12-.03-.24-.13-.32-.06-.05-.11-.1-.17-.15-.15-.15-.34-.32-.61-.32-.26,.01-.5,.21-.59,.48-.23,.71,.34,1.55,.72,1.94,.06,.06,.14,.1,.22,.1h.02c.08,0,.15-.04,.21-.1,.11-.11,.16-.31,.01-.46Z"/>
      <path class="cls-1" d="M3.03,23.82c.05,.03,.11,.04,.16,.04,.11,0,.21-.06,.27-.17,.21-.4,.49-.75,.82-1.06,.13-.12,.14-.31,.02-.44-.11-.12-.31-.18-.47-.03-.38,.35-.7,.75-.94,1.21-.1,.19,0,.37,.14,.45Z"/>
      <path class="cls-1" d="M7.39,24.63c.12-.14,.11-.32-.02-.44-.68-.61-1.57-.81-2.44-.56-.11,.03-.19,.11-.22,.23-.03,.12,0,.25,.09,.33,.08,.08,.19,.1,.3,.07,.65-.18,1.31-.04,1.81,.41,.07,.06,.14,.09,.22,.09,.1,0,.2-.05,.26-.12Z"/>
      <path class="cls-1" d="M6.16,27.21c.06,.11,.16,.17,.27,.17,.05,0,.1-.01,.15-.03,.15-.07,.25-.26,.16-.45-.16-.33-.36-.64-.6-.95,0,0,0-.02,0-.03,0-.01-.02-.01-.03-.02,0,0,0,0,0-.01-.04-.05-.09-.08-.15-.1,0,0-.01-.01-.02-.01-1.69-.37-3.15-1.29-4.21-2.67-.07-.09-.17-.13-.27-.12-.11,.02-.22,.1-.26,.22-.05,.12-.03,.24,.05,.34,1.11,1.44,2.64,2.41,4.41,2.82,.2,.25,.37,.53,.52,.84Z"/>
      <path class="cls-1" d="M15.4,37.14h0s0-.03,.01-.04c0,.18,.02,.35,.03,.53,.1,1.99,.2,4.05,1.34,5.83-.06,.57-.17,1.13-.28,1.69-.11,.54-.22,1.11-.28,1.67-.02,.17,.09,.31,.26,.33,.01,0,.03,0,.04,0,.16,0,.33-.11,.35-.31,.06-.55,.17-1.11,.28-1.65,.2-.98,.4-1.99,.31-3.03h0c-.02-.21-.21-.32-.38-.31-.15,.01-.24,.13-.26,.26-.6-1.45-.69-3.06-.76-4.63-.05-1.07-.1-2.18-.32-3.24,.05-.09,.06-.19,0-.3-.48-.86-.79-1.76-.95-2.74-.02-.11-.08-.2-.18-.23-.11-.04-.24-.02-.34,.06-.1,.08-.14,.2-.12,.32,.15,.97,.47,1.91,.95,2.78-.02,.06-.02,.11-.01,.18,.18,.82,.25,1.68,.3,2.52-.03-.06-.07-.11-.13-.14-.14-.08-.34-.07-.44,.12-.46,.81-1.27,1.32-2.18,1.39-.62-.3-.96-1.19-1.23-1.91-.08-.22-.16-.42-.24-.6l-1.14-2.53c-.79-1.75-1.58-3.49-2.37-5.24-.05-.1-.13-.17-.24-.18-.11,0-.24,.05-.31,.15-.07,.1-.08,.22-.03,.34l3.17,7.03c.3,.67,.6,1.34,.91,2.01l.05,.1c.27,.59,.52,1.14,1.16,1.43,.03,.01,.06,.01,.09,.02,.04,.02,.08,.05,.13,.05h.02c1.17-.07,2.22-.72,2.79-1.73Z"/>
      <path class="cls-1" d="M34.58,25.33c.06,.1,.18,.16,.28,.16,0,0,.02,0,.02,0,.11,0,.19-.07,.24-.17,.41-.84,.32-1.91,.24-2.85l-.03-.34c-.02-.21-.22-.32-.37-.31-.18,.01-.3,.15-.28,.33,0,.12,.02,.25,.03,.39,.07,.8,.16,1.8-.16,2.47-.05,.11-.05,.23,.02,.33Z"/>
      <path class="cls-1" d="M34.07,25.48c-.84,1.08-1.56,2.1-2.21,3.1-.11,.17-.23,.35-.35,.53-.57,.86-1.16,1.75-1.51,2.68-.26,.69-.24,1.36,.06,1.99,.25,.52,.7,1,1.28,1.4,0,0,0,.01,0,.02,.01,.87,.06,1.76,.14,2.64,.02,.2,.18,.31,.35,.31,.01,0,.02,0,.03,0,.18-.02,.29-.15,.28-.33-.07-.75-.1-1.5-.11-2.24,.22,.11,.45,.22,.69,.3,.04,.01,.07,.02,.11,.02,.07,0,.14-.02,.19-.07,.09-.08,.13-.21,.11-.33-.02-.12-.1-.21-.22-.25-1.31-.45-2.07-1.11-2.33-2-.25-.87,.23-1.67,.7-2.44,.06-.1,.12-.2,.18-.3,.19-.32,.4-.63,.6-.95,1.11,.82,2.24,1.47,3.44,1.97-.37,3.02-.73,6.05-1.05,9.04-.36-.02-.65,.09-.88,.33-.1,.02-.19,.08-.23,.21-.15,.52,.11,.94,.43,1.26-.13,.19-.22,.41-.22,.64,0,.22,.09,.42,.21,.61-.05,.26-.04,.52,.05,.76,.06,.14,.18,.23,.31,.23,.03,0,.06,0,.09-.01,.09-.02,.17-.09,.21-.18,.04-.08,.04-.16,.01-.24-.04-.11-.05-.21-.05-.31,.06-.05,.11-.11,.13-.19,.02-.1-.02-.21-.11-.28-.13-.11-.2-.25-.2-.39,0-.11,.05-.21,.12-.3,.1-.01,.19-.06,.24-.13,.11-.14,.09-.31-.07-.43-.25-.2-.53-.44-.53-.73,.02-.02,.04-.03,.05-.05,.21-.29,.82-.08,1.22,.06,.09,.03,.18,.06,.25,.08l1.44,.42s.06,.01,.1,.01c.08,0,.15-.03,.21-.08,.09-.08,.12-.22,.1-.33-.03-.11-.11-.19-.22-.23-.1-.03-.21-.07-.32-.1l.03-.45c.52,.5,1.03,1.02,1.5,1.56,.06,.07,.14,.11,.23,.11,.02,0,.04,0,.06,0,.12-.02,.22-.11,.26-.23,.04-.11,.01-.23-.07-.32-.61-.69-1.26-1.35-1.93-1.98l.43-7.78,2.5,.7s.02,0,.04,0c.72,1.02,1.43,2.04,2.11,3.07,0,0,0,.01,0,.02v.03c-.05,.45-.13,1.06-.42,1.41-.02,.02-.04,.04-.05,.06-.36,.37-.95,.4-1.51,.43-.21,0-.32,.19-.31,.35,0,.18,.14,.3,.31,.3h.02c.5-.02,.98-.08,1.4-.26-.05,.27-.15,.52-.3,.76-.11,.18-.03,.35,.11,.44,.05,.03,.12,.05,.19,.05,.09,0,.18-.04,.25-.13,.05,.19,.09,.38,.12,.58,.02,.11,.08,.2,.18,.23,.03,.01,.07,.02,.11,.02,.08,0,.16-.03,.23-.08,.1-.08,.14-.19,.13-.32-.07-.46-.2-.9-.38-1.34,.06-.25,.07-.5,.06-.76,.21-.29,.34-.63,.41-.99,.46,.71,.93,1.41,1.38,2.12,.07,.11,.17,.15,.27,.15,.07,0,.13-.02,.19-.05,.14-.08,.22-.26,.11-.44-1.72-2.77-3.58-5.51-5.53-8.14-.08-.1-.18-.15-.31-.14-.12,.02-.23,.09-.28,.2-.04,.09-.03,.2,.04,.29,.31,.41,.6,.85,.9,1.27-.63-.18-1.27-.35-1.9-.53l.22-3.93c0-.18-.11-.32-.3-.33,0,0-.01,0-.02,0-.16,0-.33,.11-.34,.31l-.75,13.51c-.35-.11-.71-.21-1.07-.3,.49-4.59,1.05-9.25,1.67-13.87,.07-.1,.15-.21,.23-.31,.05,.1,.12,.17,.24,.18,0,0,.01,0,.02,0,.16,0,.33-.11,.34-.31,.07-1.09,.94-1.96,2.04-2.02,.05,0,.09,0,.14,0,1.08,0,1.88,.74,2.27,1.19,.12,.13,.3,.15,.43,.03,.13-.11,.18-.32,.04-.48-.41-.48-.99-.92-1.66-1.18,.17-.06,.33-.16,.48-.28,.09-.07,.13-.17,.11-.28-.02-.12-.11-.22-.22-.26-.11-.05-.24-.02-.33,.06-.19,.16-.43,.24-.66,.2-.22-.03-.41-.16-.55-.34-.01-.02-.02-.05-.04-.07-.05-.06-.12-.08-.19-.09-.05-.01-.09-.01-.14,0-.43,.09-.9-.17-1.05-.6-.04-.12-.13-.2-.24-.22-.13-.03-.25,.02-.33,.1-.07,.08-.09,.19-.06,.3,.22,.67,.83,1.09,1.5,1.09,.04,0,.07,0,.11-.01,.07,.08,.15,.15,.23,.21-.17,.02-.33,.05-.5,.1-.59,.17-1.09,.52-1.45,.99-.05,.02-.09,.03-.13,.08-.37,.47-.71,.96-1.07,1.45-.09,.05-.17,.13-.19,.25-.71,.99-1.39,2-2,3.04-.09,.16-.04,.35,.12,.44,.06,.03,.12,.05,.17,.05,.11,0,.21-.06,.27-.16,.4-.67,.83-1.33,1.26-1.98-.13,.96-.25,1.93-.37,2.9-1.08-.46-2.13-1.07-3.18-1.84,.67-1.04,1.38-2.08,2.17-3.09h0c.13-.17,.07-.39-.07-.49-.14-.11-.31-.09-.42,.05Z"/>
      <path class="cls-1" d="M49.43,38.73s.04,0,.07,0c.1,0,.2-.04,.26-.12,.07-.08,.09-.19,.05-.3-1.06-3.05-2.78-5.82-4.43-8.5-.79-1.28-1.62-2.61-2.35-3.95-.06-.1-.15-.16-.26-.16h0c-.12,0-.23,.07-.3,.17-.06,.1-.06,.22,0,.32,.74,1.34,1.56,2.67,2.36,3.95,1.64,2.64,3.33,5.37,4.37,8.37,.04,.12,.13,.19,.25,.22Z"/>
      <path class="cls-1" d="M49.93,42.08c.72-.89,.36-2.39,.17-3-.04-.12-.12-.2-.24-.22-.12-.03-.25,.01-.33,.1-.07,.08-.1,.19-.06,.3,.26,.82,.39,1.87-.02,2.37-.14,.17-.08,.38,.06,.49,.06,.05,.13,.07,.19,.07,.08,0,.17-.04,.23-.11Z"/>
      <path class="cls-1" d="M33.38,46.86s.07,.02,.1,.02c.08,0,.17-.03,.24-.09,.09-.08,.13-.19,.11-.32l-1.54-7.79c-.02-.11-.09-.2-.19-.23-.11-.04-.24,0-.34,.07-.09,.08-.13,.19-.11,.32l.58,2.94s-.03-.08-.08-.11c-.14-.1-.36-.09-.47,.08-.13,.19-.27,.28-.45,.28h0c-.51,0-1.23-.69-2.16-2.04l-.03-.04c-.07-.1-.18-.16-.3-.15-.12,0-.24,.08-.29,.19-.05,.1-.04,.21,.03,.3,.41,.6,1.64,2.41,2.77,2.41h0c.38,0,.71-.2,.98-.6,.03-.04,.02-.09,.03-.13l.92,4.67c.02,.11,.09,.2,.19,.23Z"/>
      <path class="cls-1" d="M28.19,39.83h0c.12,0,.24-.07,.3-.18,.06-.1,.05-.21,0-.32-1.56-2.62-3.09-5.31-4.55-8.01-.1-.18-.29-.2-.43-.12-.14,.08-.24,.26-.14,.45,1.46,2.69,2.99,5.39,4.56,8.02,.06,.1,.16,.16,.27,.16Z"/>
      <path class="cls-1" d="M29.4,32.37c.05,0,.11-.01,.15-.04,.11-.06,.17-.18,.17-.3,0-.11-.06-.21-.16-.27-1.57-.91-3.08-1.95-4.48-3.07-.17-.14-.38-.07-.49,.06-.11,.14-.09,.31,.05,.42,1.46,1.17,3,2.23,4.6,3.16,.05,.03,.11,.05,.16,.05Z"/>
      <path class="cls-1" d="M28.77,24.71h0c-.19,0-.33,.14-.33,.32l-.03,4.57c0,.18,.14,.32,.33,.32h0c.14,0,.23-.09,.28-.21,0,0,0,0,.01,0,.47-.19,.95-.23,1.43-.11,.21,.06,.36-.09,.4-.24,.04-.16-.03-.34-.23-.39-.53-.13-1.06-.11-1.56,.05l.02-3.98c0-.18-.14-.32-.33-.32Z"/>
      <path class="cls-1" d="M30.29,30.56c.16,.06,.32,0,.39-.17,.06-.16,.01-.38-.19-.46-.61-.24-1.28-.18-1.85,.16-.08,.05-.14,.13-.15,.22-.01,.08,0,.16,.05,.23,.06,.09,.16,.16,.27,.16,.05,0,.11-.01,.17-.05,.4-.25,.86-.29,1.31-.1h0Z"/>
      <path class="cls-1" d="M38.94,42.09c-.04,.11-.02,.24,.06,.34,.07,.09,.16,.13,.27,.13,.02,0,.03,0,.05,0,1.25-.18,2.33-.62,3.31-1.34,.29-.21,.57-.44,.83-.66,.67-.55,1.3-1.08,2.11-1.36,.12-.04,.2-.13,.22-.25,.02-.12-.02-.25-.11-.33-.08-.07-.19-.09-.3-.05-.95,.34-1.67,.93-2.43,1.55-.13,.11-.26,.19-.39,.29l-.04-.09c-.03-.07-.1-.13-.18-.16-.09-.03-.2-.02-.28,.03-.15,.09-.2,.27-.12,.44l.08,.19c-.93,.61-1.84,.96-2.85,1.11-.11,.02-.19,.08-.23,.18Z"/>
      <path class="cls-1" d="M49.5,46.49c-.35-1.02-.75-2.04-1.19-3.04,.38-.26,.73-.55,1.06-.88,.08-.09,.11-.2,.08-.31-.03-.12-.13-.21-.25-.24-.11-.03-.22,0-.3,.09-2.31,2.35-6.15,2.58-9.24,2.76h-.15c-.22,.02-.32,.21-.31,.37,.01,.17,.14,.29,.31,.29h.08c1.25-.08,2.61-.16,3.96-.38,.01,.01,.01,.03,.03,.04,.36,.34,.6,.76,.74,1.22-1.69,.19-3.37,.44-5.02,.7-.85,.13-1.72,.26-2.58,.38l-.07-1.4c.73-.06,1.46-.19,2.17-.31h.05c.11-.03,.2-.1,.23-.19,.04-.11,.01-.24-.07-.34-.08-.09-.19-.14-.32-.11-.09,.02-.21,.04-.36,.07-1,.2-3.65,.73-4-.1-.05-.12-.15-.19-.27-.21-.12-.01-.25,.03-.32,.12-.06,.08-.07,.19-.03,.29,.08,.2,.21,.34,.35,.45l-.14,2.27c-.01,.18,.11,.32,.29,.33,0,0,.01,0,.02,0,.16,0,.33-.11,.34-.31l.12-2c.17,.03,.34,.06,.52,.07,.19,.01,.39,.02,.58,.02,.06,0,.12,0,.18,0l.07,1.46c-.23,.03-.46,.07-.69,.1-.22,.03-.32,.23-.3,.4,.02,.16,.13,.26,.28,.26,.02,0,.03,0,.05,0,1.32-.17,2.65-.38,3.94-.57,2.84-.44,5.78-.89,8.7-1,.21,0,.32-.19,.31-.35,0-.18-.14-.31-.31-.31h-.01c-.23,0-.46,.03-.69,.04-.22-.62-.46-1.24-.73-1.83,.39-.16,.76-.34,1.13-.55,.41,.94,.8,1.91,1.14,2.89,.04,.12,.13,.2,.25,.22,.02,0,.05,0,.07,0,.1,0,.2-.04,.26-.11,.07-.08,.09-.19,.05-.3Zm-4.5-.14c-.14-.49-.37-.95-.7-1.34,.58-.12,1.16-.25,1.71-.44,.24,.53,.45,1.08,.65,1.63-.56,.04-1.11,.09-1.66,.14Z"/>
      <path class="cls-1" d="M51.53,55.2c-.05-.22-.09-.42-.11-.58-.35-2.41-.85-4.9-1.49-7.38-.05-.2-.23-.27-.39-.23-.16,.04-.29,.19-.24,.4,.46,1.78,.84,3.53,1.14,5.21,.15,.85,.28,1.7,.4,2.54,.02,.11,.04,.25,.07,.4,.07,.35,.16,.8,.12,1.08-.1,.65-.57,.76-1.16,.9l-.11,.02c-.09,.02-.17,.08-.21,.15-.04,.07-.05,.15-.03,.23,.03,.14,.15,.26,.32,.26,.03,0,.06,0,.09-.01,.51-.12,1.36-.32,1.65-.87,.27-.53,.08-1.41-.07-2.12Z"/>
      <path class="cls-1" d="M48.93,57.76c-2.26,.42-4.67,.66-7.59,.74-1.35,.04-2.72,.05-3.76,.05-.16,0-.34,.01-.52,.02-.46,.03-.94,.05-1.32-.06-.89-.27-1.03-1.09-1.12-2.06-.01-.12-.08-.22-.19-.28-.11-.05-.25-.04-.34,.02-.09,.06-.13,.16-.12,.27,.01,.14,.02,.28,.03,.42,.05,.82,.09,1.68,.97,2.1,.4,.2,.84,.23,1.28,.23,.09,0,.18,0,.27,0,.09,0,.18,0,.27,0,.86,0,1.72,0,2.57-.02,2.19-.03,4.94-.12,7.78-.5,.26,1.71,.37,3.46,.3,5.21,0,.12,.05,.22,.14,.27,.05,.03,.12,.05,.18,.05,.06,0,.11-.01,.17-.04,.1-.06,.17-.16,.17-.28,.07-1.76-.04-3.54-.31-5.3,.43-.06,.86-.14,1.29-.22,.11-.02,.2-.09,.23-.19,.04-.11,.01-.24-.07-.34-.08-.09-.2-.13-.31-.11Z"/>
      <path class="cls-1" d="M34.35,48.59c-.06-.05-.14-.08-.22-.08h0c-.08,0-.16,.03-.22,.08-.07,.06-.11,.15-.1,.24l.06,6.74c0,.12,.06,.22,.16,.28,.05,.03,.11,.05,.17,.05s.12-.02,.17-.05c.1-.06,.15-.16,.15-.28l-.06-6.74c0-.1-.04-.18-.11-.24Z"/>
      <path class="cls-1" d="M42.8,57.64c.22,.26,.55,.41,.91,.41,.02,0,.05,0,.07,0,.39-.02,.74-.19,.98-.47,.17-.2,.24-.46,.24-.72,1-.12,2.04-.29,3.05-.56,.73-.19,1.63-.54,2.06-1.47,.42-.9,.3-2,.15-3.04-.22-1.49-.7-2.94-1.16-4.34h0c-.04-.12-.13-.2-.24-.22-.12-.03-.25,.02-.33,.1-.07,.08-.09,.19-.06,.3,.08,.26,.18,.53,.27,.8,.62,1.82,1.33,3.89,.92,5.65-.42,1.82-3.47,2.06-5.28,2.21-.24,.02-.47,.04-.67,.06-1.01,.1-2.07,.17-3.23,.21-.19,0-.39,.02-.6,.03-.9,.06-1.92,.12-2.63-.32-.78-.49-1.01-1.65-1.19-2.58-.03-.13-.05-.25-.07-.37-.23-1.1-.37-2.26-.44-3.52,0-.21-.18-.32-.34-.32h-.02c-.08,0-.16,.03-.21,.09-.06,.06-.1,.15-.09,.24,.07,1.51,.26,2.9,.58,4.23l.06,.28c.19,.85,.44,1.9,1.21,2.45,.57,.41,1.29,.48,1.99,.48,.22,0,.44,0,.65-.02,.12,0,.23,0,.35-.01,1.03-.02,1.98-.07,2.87-.13,.02,.2,.08,.39,.21,.55Zm1.54-.71c-.03,.17-.15,.28-.25,.34-.23,.14-.57,.14-.75,0-.08-.06-.11-.14-.11-.23,.3-.03,.6-.05,.89-.09,.08,0,.15-.02,.23-.03Z"/>
      <path class="cls-1" d="M30.08,47.42c-.06,.06-.09,.13-.1,.21,0,.09,.03,.18,.1,.24,.63,.61,1.28,1.21,1.94,1.78h0c.07,.06,.14,.08,.21,.08,.1,0,.2-.05,.27-.12,.12-.14,.1-.32-.03-.44-.66-.57-1.31-1.16-1.93-1.77-.15-.15-.35-.1-.46,.01Z"/>
      <path class="cls-1" d="M32.94,46.01c.01-.12-.05-.24-.15-.31-.1-.07-.22-.08-.34-.03-2.14,.97-4.41,1.54-6.75,1.7-.12,0-.22,.08-.28,.18-.05,.11-.05,.25,.02,.35,.06,.08,.15,.13,.25,.13,0,0,.02,0,.03,0,2.44-.17,4.81-.76,7.04-1.78,.1-.05,.17-.13,.18-.24Z"/>
      <path class="cls-1" d="M24.72,48.08h0c.21-.02,.32-.21,.3-.39-.02-.17-.16-.29-.33-.27-2.43,.25-4.85,.12-7.21-.41-.12-.03-.23,0-.31,.1-.08,.09-.11,.22-.08,.34,.03,.1,.12,.18,.23,.2,1.16,.26,2.32,.42,3.5,.5,.07,.7,.12,1.41,.13,2.12,0,.12,.06,.22,.16,.28,.05,.03,.11,.04,.17,.04s.12-.02,.18-.05c.1-.06,.15-.16,.15-.28-.01-.7-.06-1.4-.13-2.09,.28,.01,.57,.02,.85,.02,.8,0,1.6-.04,2.4-.13Z"/>
      <path class="cls-1" d="M18.79,48.06c-.08,.02-.15,.08-.19,.16-.38,.77-.8,1.54-1.24,2.27-.06,.1-.07,.21-.01,.31,.06,.11,.17,.18,.3,.18h0c.11,0,.21-.06,.27-.16,.45-.74,.87-1.51,1.25-2.29h0c.09-.19,0-.38-.16-.45-.07-.04-.15-.04-.22-.03Z"/>
      <path class="cls-1" d="M16,54.24c.09-.8,.29-1.57,.61-2.31,0,0,.01,.02,.02,.03,.06,.09,.16,.14,.27,.14,.01,0,.03,0,.04,0,.12-.01,.24-.09,.28-.2,.04-.1,.03-.2-.04-.29-.64-.88-.48-2.1-.34-3.18,.03-.24,.06-.47,.08-.7,.01-.11-.03-.21-.12-.27-.09-.07-.23-.08-.34-.03-.11,.05-.18,.15-.19,.27-.02,.22-.05,.45-.08,.69-.11,.9-.24,1.89,.04,2.77-.47,.95-.76,1.98-.88,3.05-.02,.17,.09,.31,.27,.33,.01,0,.03,0,.04,0,.16,0,.33-.11,.35-.3Z"/>
      <path class="cls-1" d="M26.18,61.52c.04,.17,.17,.24,.3,.24,.03,0,.06,0,.09-.01,.16-.04,.3-.19,.24-.4-.08-.34-.17-.68-.25-1.03-.38-1.57-.77-3.19-1.43-4.63-.15-.33-.35-.63-.56-.91,0,0,0,0-.01-.02-.28-.36-.59-.69-.9-1.02-.48-.5-.97-1.02-1.31-1.64-.1-.18-.29-.2-.43-.12-.14,.08-.24,.26-.14,.45,.36,.66,.87,1.2,1.36,1.72,.04,.04,.07,.08,.11,.12-.49-.18-.96-.38-1.41-.63-.11-.06-.22-.06-.32,0-.1,.06-.17,.18-.17,.3,0,.11,.06,.21,.17,.26,.81,.44,1.67,.77,2.55,1,.23,.31,.43,.63,.58,1,.12,.3,.22,.6,.33,.91-.03,.03-.05,.06-.07,.1-.82,2.51-1.84,4.98-3.03,7.33-.04,.04-.07,.09-.09,.15-.18,.81-.4,1.62-.63,2.43-1.47-.08-2.93-.34-4.34-.8-.11-.04-.22-.02-.3,.06-.09,.08-.13,.21-.1,.33,.02,.12,.1,.2,.22,.24,1.4,.46,2.85,.72,4.34,.81-.08,.26-.15,.53-.23,.79-.05,.17,.03,.34,.21,.39,.03,.01,.07,.02,.11,.02,.13,0,.26-.07,.31-.23,.39-1.23,.73-2.51,1.03-3.78,0,0,0,0,0,0,1.12-2.21,2.08-4.51,2.88-6.85,.26,.89,.49,1.79,.71,2.68l.18,.71Z"/>
      <path class="cls-1" d="M14.6,65.65c-.16-.06-.32,0-.39,.16-.07,.16-.01,.38,.19,.46,.34,.14,.7,.26,1.05,.37,.03,0,.06,.01,.09,.01,.14,0,.26-.09,.31-.24,.04-.15-.02-.35-.22-.41-.35-.1-.69-.22-1.03-.36Z"/>
      <path class="cls-1" d="M20.77,68.92c-2.25-.34-4.79-.73-7.08-1.85,.75-3.96,1.45-7.96,2.08-11.88h0c.03-.21-.12-.37-.29-.4-.17-.03-.32,.08-.34,.25-.65,4.04-1.37,8.13-2.13,12.15-.02,.1,0,.18,.05,.25,.02,.04,.05,.06,.09,.09,0,0,.01,.01,.02,.01,0,0,.01,.01,.02,.02,1.99,1.02,4.12,1.48,6.47,1.86-.02,.03-.05,.05-.05,.09-.09,.56-.23,1.11-.41,1.65-.06,.17,.02,.33,.19,.39,.03,0,.05,.01,.08,.01,.37,1.09,.3,2.45,.24,3.56v.12c-.08,1.4-.23,2.86-1.19,3.93-.14,.16-.09,.36,.03,.47,.06,.06,.14,.09,.21,.09,.08,0,.17-.04,.23-.11,1.02-1.13,1.25-2.59,1.35-4.01,.1-1.45,.22-3.25-.41-4.66,.13-.43,.24-.87,.31-1.32h0c0-.05,0-.1-.01-.15,.14,.02,.27,.04,.4,.06,.02,0,.04,0,.05,0,.1,0,.2-.05,.26-.13,.08-.1,.1-.23,.06-.34-.04-.1-.12-.16-.23-.18Z"/>
      <path class="cls-1" d="M27.33,72.53c-1.16-2.17-.18-4.39,.77-6.54,.41-.94,.83-1.9,1.07-2.85,.9,.43,1.82,.83,2.76,1.16,.04,.01,.07,.02,.11,.02,.13,0,.24-.08,.28-.21,.06-.16,0-.37-.2-.44-1.01-.35-2-.78-2.96-1.26,1.1-2.51,1.99-5.09,2.65-7.07,.9-2.71,1.67-5.16,2.02-7.76,.02-.13-.03-.24-.13-.32-.1-.08-.23-.1-.34-.06-.09,.04-.16,.12-.17,.23-.34,2.54-1.09,4.92-1.89,7.34-.81,2.44-1.71,5.05-2.84,7.6-.04,.08-.03,.17,0,.25,0,.02-.01,.04,0,.06,.02,.06,.07,.11,.12,.15-.22,.96-.63,1.94-1.05,2.89-.17-1.12-.38-2.23-.68-3.3-.05-.18-.22-.27-.4-.22-.18,.05-.28,.22-.23,.4,.39,1.39,.66,2.82,.82,4.23,0,.01,.01,.01,.01,.03-.8,1.95-1.38,3.96-.29,5.99,.06,.12,.17,.17,.27,.17,.06,0,.11-.01,.16-.04,.14-.08,.24-.26,.14-.45Z"/>
      <path class="cls-1" d="M48.35,69.89c-.17-.45-.35-.92-.48-1.39-.28-.98-.38-2.01-.47-3.01,.16-.02,.31-.04,.47-.07,.11-.02,.2-.09,.23-.18,.04-.11,.01-.24-.06-.34-.08-.1-.2-.14-.32-.12-4.93,.84-9.87,.52-14.67-.94-.2-.06-.35,.06-.4,.22-.05,.15,.01,.35,.22,.41,1.17,.36,2.36,.62,3.55,.85-.19,.25-.37,.51-.56,.76-.07,.04-.13,.12-.15,.21-.89,1.22-1.74,2.46-2.52,3.73-.11,.18-.03,.36,.11,.44,.05,.03,.12,.05,.18,.05,.1,0,.2-.05,.27-.16,.36-.59,.75-1.16,1.13-1.74,0,.02-.01,.05,0,.07,.03,.13,.14,.24,.29,.26l.11,.47c-.08,.01-.15,.05-.2,.1-.12,.14-.12,.32,.01,.45,2.34,2.16,4.39,5.69,3.87,8.85-.15,.07-.23,.22-.17,.38,.37,1.04,.69,2.09,.97,3.14,.03,.09,.08,.17,.17,.21,.04,.02,.09,.03,.14,.03,.03,0,.06,0,.09-.01,.08-.02,.15-.07,.19-.14,.05-.08,.07-.17,.04-.26-.26-.96-.55-1.91-.87-2.84,0-.02,.02-.04,.03-.06,.71-3.27-1.19-6.92-3.52-9.3,.02-.05,.02-.11,0-.17l-.23-.95c.24-.04,.47-.1,.71-.13,.11-.01,.2-.07,.25-.15,.05-.08,.07-.17,.05-.26l-.06-.26,.02-.02h-.02s-.37-1.56-.37-1.56c.25-.34,.49-.68,.74-1.01,.89,.15,1.79,.26,2.69,.33,.34,1.62,.88,3.18,1.61,4.66-.03,.07-.05,.14-.03,.22,.38,1.75,.7,3.54,.96,5.33,.02,.11,.08,.2,.17,.23,.04,.01,.07,.02,.11,.02,.08,0,.16-.03,.22-.08,.1-.08,.14-.19,.13-.32-.21-1.46-.48-2.92-.77-4.37,.03,0,.06,0,.09-.03,.07-.04,.13-.1,.16-.18,.03-.09,.02-.18-.02-.27-.9-1.62-1.55-3.36-1.95-5.19,.61,.03,1.22,.07,1.84,.07,1.47,0,2.94-.1,4.41-.3,.07,.79,.14,1.6,.31,2.39,.14,.67,.38,1.31,.61,1.93,.1,.27,.21,.55,.3,.83,.7,2.04,.86,4.29,.47,6.5-.04,.21,.12,.37,.28,.4,.02,0,.04,0,.06,0,.06,0,.11-.01,.16-.04,.07-.04,.12-.12,.14-.21,.35-2,.3-3.94-.17-5.78-.15-.59-.36-1.16-.57-1.72Zm-12.46-2.74l.23,.96c-.34,.05-.67,.11-1,.19-.02,0-.03,.03-.05,.03,.27-.4,.54-.79,.82-1.18Z"/>
      <path class="cls-1" d="M41.56,86.94c.07,0,.14-.02,.2-.07,.1-.07,.16-.2,.14-.31-.01-.1-.08-.19-.18-.23-.25-.11-.43-.89-.52-1.32-.04-.16-.07-.3-.1-.4-.17-.53-.35-1.07-.56-1.64-.04-.12-.14-.19-.25-.22-.13-.02-.25,.02-.33,.11-.07,.08-.08,.19-.04,.3,.31,.84,.57,1.62,.79,2.39,.02,.08,.05,.17,.07,.26,.1,.42,.21,.89,.65,1.08,.05,.02,.09,.03,.14,.03Z"/>
      <path class="cls-1" d="M48.44,77.91c-.1,.04-.16,.12-.18,.23-.45,3.01-1.36,6.01-2.24,8.9-.26,.86-.52,1.72-.77,2.57-.03,.11,0,.22,.07,.3,.06,.07,.16,.11,.25,.11,.03,0,.06,0,.08,0,.11-.03,.2-.11,.23-.22,.25-.85,.51-1.71,.77-2.57,.88-2.9,1.8-5.91,2.25-8.94,.02-.12-.03-.24-.13-.32-.1-.08-.23-.1-.34-.06Z"/>
      <path class="cls-1" d="M32.51,70.74c1.99,1.31,2.95,3.85,3.57,5.91,.58,1.94,.8,3.99,1,5.98,.04,.4,.08,.8,.13,1.19,.01,.12,.09,.22,.2,.27,.05,.02,.1,.03,.15,.03,.07,0,.14-.02,.19-.06,.08-.06,.12-.16,.11-.27-.04-.38-.08-.76-.12-1.13-.24-2.29-.49-4.66-1.26-6.9-.69-2.03-1.67-4.29-3.63-5.58-.1-.06-.21-.07-.3-.02-.11,.05-.18,.17-.19,.29,0,.12,.05,.23,.15,.29Z"/>
      <path class="cls-1" d="M32.59,83.18c1.12,1.96,1.94,3.47,2.64,4.92,.08,.16,.16,.33,.25,.5,.35,.7,.72,1.43,.9,2.15,.16,.6,.13,1.19,0,1.78-.26,.26-.59,.37-1.04,.46-.07,.01-.14,.03-.21,.04-.24,.04-.51,.08-.72,.23-.24,.17-.3,.38-.3,.52,0,.35,.29,.7,.56,.91,.06,.05,.12,.07,.19,.07,.08,0,.17-.04,.23-.12,.11-.14,.11-.36-.06-.5-.08-.05-.14-.11-.2-.19l.02-.19c.06-.02,.18-.04,.22-.05l.25-.05c.15-.03,.3-.06,.45-.09,.14-.03,.24-.09,.36-.14-.12,.34-.26,.68-.41,1.05-.05,.12-.03,.24,.04,.34,.07,.09,.17,.14,.28,.14,.01,0,.02,0,.03,0,.1-.01,.18-.08,.23-.18,.29-.69,.52-1.31,.65-1.92,0-.02,.01-.04,.02-.06,.23-1.05,.18-2.04-.29-3.15-.83-1.95-1.82-3.8-2.77-5.5-.73-1.31-1.51-2.63-2.25-3.91-1.35-2.31-2.75-4.7-3.97-7.14-.04-.08-.11-.14-.19-.16-.07-.02-.15,0-.22,.03-.15,.07-.25,.26-.16,.45,1.23,2.46,2.64,4.88,4,7.21,.5,.85,1,1.7,1.49,2.56Z"/>
      <path class="cls-1" d="M40.94,86.77c-.11,0-.21,.06-.26,.17-.19,.36-.42,.69-.68,.99-.08,.09-.11,.21-.07,.32,.04,.12,.14,.21,.26,.23,.02,0,.04,0,.06,0,.08,0,.17-.04,.23-.11,.31-.35,.57-.72,.78-1.12,.06-.11,.06-.22,0-.32-.06-.1-.18-.17-.29-.17h0Z"/>
      <path class="cls-1" d="M32.33,92.26c-.21-.04-.36,.09-.4,.25-.02,.08,0,.16,.03,.23,.04,.08,.11,.13,.21,.15,.43,.1,.86,.22,1.28,.35,.04,.01,.07,.02,.1,.02,.15,0,.26-.11,.29-.23,.05-.16-.01-.35-.21-.42-.43-.13-.86-.25-1.29-.35Z"/>
      <path class="cls-1" d="M33.42,94.46c.12,0,.23-.07,.27-.2,.06-.16,0-.37-.19-.45l-.55-.21c-.29-.11-.58-.22-.87-.34l-.1-.04c-.17-.06-.41-.15-.5-.28-.16-.23-.09-.49,.03-.82,.02-.07,.01-.14,0-.2,0,0,0,0,0,0,.06,.06,.14,.09,.22,.09,.03,0,.06,0,.09-.01,1.11-.29,1.91-.96,2.66-1.82,.22,.09,.42,.22,.6,.38,.06,.06,.14,.09,.22,.09,.03,0,.06,0,.1-.01,.12-.04,.21-.14,.24-.25,.02-.11-.01-.21-.1-.29-.19-.17-.4-.31-.63-.43,.15-.19,.3-.39,.46-.6h0c.1-.14,.08-.31-.06-.42-.14-.1-.36-.11-.49,.06-.92,1.24-1.8,2.3-3.16,2.65-.11,.03-.2,.11-.23,.22-.02,.09,0,.18,.04,.26-.04-.05-.08-.1-.14-.12-.16-.06-.37,0-.44,.2-.17,.48-.32,1.17,.32,1.62,.43,.31,.98,.49,1.51,.67,.2,.07,.4,.14,.59,.21,.04,.02,.08,.02,.12,.02Z"/>
      <path class="cls-1" d="M42.79,91.39c.02,.16,.15,.31,.34,.31,.02,0,.03,0,.05,0,.6-.08,1.19-.22,1.77-.41,.2-.07,.26-.27,.21-.43-.06-.17-.22-.26-.39-.2-.56,.19-1.14,.32-1.72,.4-.17,.02-.27,.16-.25,.33Z"/>
      <path class="cls-1" d="M45.34,90.23c-.11,.12-.14,.31,0,.45,.33,.31,.47,.52,.26,.77-.19,.23-.44,.4-.69,.56-.18,.11-.19,.32-.1,.46,.06,.09,.16,.16,.27,.16,.05,0,.11-.02,.17-.05,0,0,.02-.01,.02-.02,.12,.45,.21,.91,.26,1.37-.64,.38-1.59,.28-2.36,.2-.13-.01-.25-.03-.37-.04-.17,0-.31,.1-.33,.27-.02,.17,.09,.36,.31,.38,.11,.01,.23,.02,.35,.04,.37,.04,.78,.08,1.18,.08,.44,0,.89-.05,1.28-.21,0,.1,.02,.2,.02,.3,0,0,0,0,0,0-.19,.29-1.52,.21-2.02,.18-.12,0-.22-.01-.28-.01-.62-.01-1.29-.06-2.04-.14-.01,0-.03,0-.04,0-.16,0-.28,.11-.29,.27-.02,.17,.09,.36,.3,.39,.93,.1,1.8,.15,2.65,.15,.21,0,.41,0,.61,0,.08,0,.17,0,.26,0,.43,0,.89-.02,1.22-.3,.16,0,.31-.12,.3-.32-.01-1.02-.17-2.03-.44-3.01,.2-.18,.39-.39,.47-.63,.19-.54-.18-.98-.52-1.3-.16-.15-.36-.1-.47,.02Z"/>
      <path class="cls-1" d="M42.06,93.74c.26-.16,.55-.33,.72-.59,.47-.7-.19-1.32-.67-1.78-.09-.08-.17-.16-.24-.23-.06-.06-.14-.1-.22-.1,0,0-.01,0-.02,0-.03,0-.05,.03-.08,.04,.12-.09,.19-.25,.1-.41l-.2-.38c1.13-1.41,1.38-3.4,1.59-5.16l.04-.32c.31-2.54,.29-5.16-.05-7.8-.02-.12-.09-.22-.21-.27-.12-.05-.25-.03-.34,.03-.08,.06-.12,.16-.11,.27,.29,2.24,.35,4.46,.17,6.58l-.03,.39c-.15,1.88-.35,4.17-1.43,5.67-.04-.05-.08-.09-.13-.13-.22-.14-.53-.17-.81-.19l-2.19-5.05c-.07-.16-.24-.22-.39-.15-.16,.07-.27,.26-.19,.46l2.1,4.84c-.04,.05-.08,.11-.08,.19,0,.17,.1,.35,.31,.36,.06,0,.12,0,.19,0,.26,0,.61,0,.74,.15,.05,.06,.1,.16,.14,.25,.02,.05,.04,.1,.06,.14l.23,.45c.06,.11,.16,.17,.27,.17,.02,0,.05-.01,.07-.02,0,0,0,0,0,0-.06,.06-.1,.13-.11,.21,0,.09,.02,.18,.09,.25,.05,.05,.11,.11,.16,.16,0,0,0,0,0,0-.56,.65-1.16,1.27-1.81,1.83-.09,.08-.12,.18-.1,.28,.02,.12,.11,.22,.23,.26,.04,.01,.07,.02,.11,.02,.08,0,.15-.03,.22-.08,.64-.55,1.23-1.16,1.78-1.8,.11,.21,.19,.49,.12,.63-.07,.14-.38,.31-.62,.44-.14,.08-.27,.15-.36,.21-.59,.44-1.05,.92-1.39,1.46-.1,.15-.06,.34,.1,.44,.06,.04,.12,.06,.19,.06,.1,0,.2-.04,.27-.15,.34-.54,.8-.99,1.49-1.46,.08-.05,.17-.11,.25-.16Z"/>
      <path class="cls-1" d="M39.61,95.41c-.18-.04-.34,.06-.38,.23-.47,2.05-2.74,2.58-4.67,2.81-.12,.01-.22,.09-.27,.21-.05,.12-.04,.25,.03,.34,.05,.07,.14,.11,.23,.11,.01,0,.03,0,.04,0,1.99-.24,4.7-.84,5.27-3.3,.05-.21-.1-.36-.26-.4Z"/>
      <path class="cls-1" d="M34.07,98.28l-.04-.02c-.13-.07-.28-.16-.31-.26-.01-.04,0-.1,.03-.16,.03-.04,.16-.13,.24-.18,.05-.03,.1-.06,.13-.09,.24-.19,.44-.36,.61-.54,.08-.08,.14-.18,.22-.26,.01,0,.02,.01,.04,.01,.05,0,.11-.01,.16-.05,2.42-1.38,4.24-3.5,5.25-6.12,.04-.11,.03-.21-.04-.29-.07-.09-.2-.14-.32-.12-.12,.02-.22,.1-.26,.21-.81,2.1-2.18,3.85-3.99,5.13,0,0,0,0,0,0,.1-.19,0-.38-.15-.45-.07-.04-.15-.05-.22-.03-.08,.02-.15,.08-.19,.16-.25,.5-.54,.92-.88,1.27-.18,.19-.37,.34-.58,.5-.14,.11-.28,.22-.42,.34-.25,.23-.37,.46-.35,.69,.04,.38,.45,.65,.75,.82,.05,.03,.11,.04,.16,.04,.12,0,.23-.08,.29-.18,.08-.14,.06-.34-.12-.44Z"/>
      <path class="cls-1" d="M38.2,96.24c-.11-.02-.2,.03-.27,.12-.78,1.01-1.98,1.23-3.35,1.39-.21,.03-.32,.22-.3,.39,.02,.16,.14,.26,.29,.26,.01,0,.03,0,.04,0,1.49-.17,2.9-.43,3.8-1.6,.08-.1,.09-.22,.05-.34-.05-.12-.15-.2-.26-.22Z"/>
      <path class="cls-1" d="M13.3,67.74c-.15-.04-.34,.03-.39,.23-.17,.67-.29,1.37-.04,2.05-.02,.04-.04,.07-.04,.12-.13,1.5-.19,3.03-.2,4.54,0,.18,.14,.32,.33,.32h0c.19,0,.33-.14,.33-.32,0-1.5,.08-3.01,.2-4.49,.05-.09,.07-.2,.02-.31-.26-.55-.1-1.19,.04-1.75,.05-.21-.09-.36-.24-.4Z"/>
      <path class="cls-1" d="M18.08,79.7c-.09,.04-.16,.12-.17,.23l-1.13,8.21c-.02,.13,.03,.24,.13,.32,.07,.05,.15,.08,.22,.08,.04,0,.08,0,.11-.02,.09-.04,.16-.12,.17-.23l1.13-8.22c.02-.12-.03-.24-.13-.32-.1-.08-.23-.1-.34-.06Z"/>
      <path class="cls-1" d="M17.11,88.59c-.09-.01-.19-.03-.28-.05-.22-.05-.36,.11-.4,.27-.02,.08,0,.16,.03,.22,.04,.07,.12,.13,.21,.14,.09,.02,.18,.03,.26,.04,.32,.04,.42,.07,.42,.31,0,.14-.04,.29-.09,.46-.04,.14-.08,.29-.1,.44-.04,.44-.01,.88,.01,1.3,.04,.62,.08,1.2-.08,1.8-.03,.09,0,.19,.04,.26,.05,.06,.11,.11,.19,.13,.03,0,.06,.01,.09,.01,.05,0,.1-.01,.14-.03,.08-.04,.14-.11,.16-.21,.19-.71,.15-1.37,.1-2.1-.04-.66,.05-1.22,.16-1.86l.04-.22c.04-.25,.01-.44-.09-.58-.17-.23-.49-.29-.83-.34Z"/>
      <path class="cls-1" d="M14.72,89.82c.43,0,.86-.07,1.27-.21,.12-.04,.19-.13,.22-.25,.02-.12-.02-.25-.11-.33-.08-.07-.19-.09-.3-.05-.43,.15-.85,.2-1.3,.18-.17,0-.32,.11-.33,.29,0,.17,.1,.35,.31,.36,.08,0,.15,0,.23,0Z"/>
      <path class="cls-1" d="M13.2,89.48c-.11,0-.2,.07-.25,.17-.09,.18-.19,.34-.31,.47-.12,.14-.12,.33,0,.46,.06,.06,.15,.1,.24,.1,0,0,.01,0,.02,0,.09,0,.17-.04,.22-.1,.17-.2,.3-.4,.4-.61,.06-.11,.05-.23-.02-.33-.06-.1-.18-.16-.29-.16h-.02Z"/>
      <path class="cls-1" d="M13.67,89.07c0-.86-.29-1.35-.83-1.5,.21-3.83,.37-7.72,.49-11.56,0-.21-.15-.32-.31-.32,0,0,0,0-.01,0-.16,0-.33,.11-.33,.32-.12,3.85-.28,7.73-.49,11.53-.74,.12-1.49,.68-2.02,1.06l-.06,.05c-.1,.07-.15,.19-.14,.31,.01,.1,.07,.19,.15,.25-.03,.02-.06,.02-.08,.05-.11,.14-.11,.36,.06,.5,.29,.22,.55,.48,.77,.78,.07,.09,.16,.13,.27,.13,.02,0,.03,0,.05,0,.12-.02,.23-.09,.28-.2,.04-.09,.02-.2-.05-.29-.28-.37-.6-.68-.97-.97,.12-.09,.23-.15,.34-.23,.05,.04,.1,.07,.17,.07,.33,.04,.62,.21,.85,.5,.06,.08,.14,.12,.23,.12,.07,0,.13-.02,.19-.07,.13-.11,.19-.32,.06-.49-.21-.25-.47-.44-.77-.56,.07-.04,.14-.08,.21-.12l.07-.03c.24-.12,.6-.29,.83-.21,.35,.11,.38,.43,.38,.86v.05c0,.18,.14,.32,.33,.32h0c.08,0,.16-.03,.22-.08,.07-.06,.11-.15,.11-.24Z"/>
      <path class="cls-1" d="M4.74,90.78c.06-.29,.2-.55,.36-.79,.04,.02,.08,.02,.13,.02,0,0,.02,0,.03,0,.18-.01,.3-.15,.29-.33,0-.08,.02-.15,.07-.19,.29-.27,1.31-.09,1.8-.01,.14,.02,.24,.04,.31,.05,.32,.03,.61,.04,.9,.02,.01,.01,.02,.03,.04,.04,.26,.15,.45,.36,.58,.64,.05,.1,.13,.17,.23,.18,0,0,.02,0,.03,0,.11,0,.21-.06,.28-.15,.07-.1,.09-.22,.03-.34-.08-.19-.2-.35-.33-.5,.02,0,.03,0,.05,0,.09-.02,.17-.08,.21-.16,.03-.07,.04-.15,.02-.23-.04-.16-.19-.3-.4-.24-.67,.17-1.3,.09-1.97,0-.49-.06-.99-.13-1.51-.09-.38,.03-.66,.19-.83,.43-.06,.01-.12,.04-.17,.08-.4,.39-.67,.88-.78,1.42-.04,.21,.1,.36,.27,.4,.02,0,.05,0,.07,0,.05,0,.11-.01,.15-.04,.08-.04,.13-.12,.15-.21Z"/>
      <path class="cls-1" d="M5.59,90.03c-.08-.03-.16-.03-.24,.01-.09,.04-.16,.12-.18,.21-.04,.16,.04,.32,.21,.39,.07,.09,.17,.14,.27,.14,.06,0,.11-.01,.16-.04,.08-.05,.14-.13,.16-.23,.02-.09,0-.17-.05-.23-.09-.12-.19-.2-.33-.25Z"/>
      <path class="cls-1" d="M16.66,92.38c-3.27,.17-6.51-.29-9.61-1.38-.17-.06-.33,.02-.39,.19-.05,.16,0,.36,.2,.43,2.74,.96,5.58,1.44,8.47,1.44,.45,0,.89-.01,1.34-.03,.21-.01,.32-.19,.31-.36,0-.18-.15-.32-.33-.3Z"/>
      <path class="cls-1" d="M16.49,93.43s-.02,0-.03,0c-4,.33-7.97-.48-11.5-2.35-.19-.1-.37,0-.45,.15-.08,.16-.03,.34,.13,.43,3.12,1.65,6.58,2.5,10.07,2.5,.59,0,1.18-.02,1.76-.07,.21-.02,.32-.2,.31-.37-.01-.17-.14-.28-.3-.28Z"/>
      <path class="cls-1" d="M19.61,28.85c0,.12,.06,.24,.16,.3,.05,.03,.11,.05,.17,.05,.05,0,.11-.01,.16-.04,.2-.11,.4-.19,.6-.27,.15,.15,.27,.29,.32,.43,.05,.16,.18,.23,.31,.23,.04,0,.08,0,.11-.02,.17-.06,.26-.22,.2-.39-.13-.4-.41-.65-.68-.88-.15-.14-.31-.28-.44-.45-.05-.06-.16-.22-.18-.25,0,0,.02,0,.09,0,.14,0,.3,.06,.45,.12l.1,.03c.34,.12,.68,.27,1,.42,.08,.09,.18,.15,.31,.11,.44-.13,.9,.01,1.21,.36,.06,.07,.14,.11,.23,.11,.07,0,.15-.03,.21-.09,.11-.1,.16-.28,.06-.43,.02,.01,.03,.02,.05,.03h0c.06,.04,.12,.06,.18,.06,.1,0,.19-.05,.25-.14,.1-.14,.09-.36-.08-.48-.65-.45-1.45-.51-2.19-.18-.01,0-.02,.02-.03,.03-.42-.2-.85-.39-1.3-.51h-.05c-.32-.1-.86-.24-1.06,.2-.23,.49,.06,.89,.42,1.24-.14,.06-.28,.11-.41,.18-.1,.05-.16,.15-.17,.26Z"/>
      <path class="cls-1" d="M22.98,30.81c1,0,1.65-.45,1.74-1.2,.01-.11-.03-.21-.11-.27-.09-.07-.23-.08-.34-.03-.11,.05-.19,.15-.2,.27-.05,.47-.61,.57-1.08,.57-.02,0-.04,0-.06,0-.2,0-.31,.16-.32,.32,0,.16,.11,.33,.32,.34h.06Z"/>
      <path class="cls-1" d="M17.61,28.46c-.31,0-.59,.18-.69,.41-.07,.19-.01,.4,.17,.56,.16,.15,.36,.1,.47-.03,.06-.07,.09-.15,.09-.23,.17,0,.41,.02,.45,.03,.17,.05,.34,.12,.51,.21,.16,.08,.31,.2,.46,.32,.09,.07,.18,.14,.28,.21,.28,.19,.56,.29,.88,.29,.13,0,.27-.02,.41-.05,.11-.02,.2-.1,.23-.2,.04-.11,0-.24-.08-.34-.08-.09-.19-.13-.31-.1-.43,.09-.78-.15-1.14-.42-.19-.14-.39-.28-.6-.38-.42-.19-.79-.28-1.12-.28h-.01Z"/>
      <path class="cls-1" d="M17.5,30.61c-.4-.21-.84-.38-1.34-.52-.18-.05-.35,.05-.4,.23-.04,.15,.02,.35,.22,.41,.54,.15,1,.39,1.49,.65,.17,.09,.34,.18,.52,.27,.32,.16,.62,.24,.91,.24,.15,0,.3-.02,.45-.06,0,0,0,0,0,0,.18,.15,.38,.3,.6,.41,.22,.11,.42,.16,.62,.16,.6,0,1.12-.43,1.59-.82,.13-.11,.26-.21,.39-.31,.1-.07,.15-.19,.14-.31-.01-.12-.09-.23-.2-.28-.1-.04-.2-.03-.29,.04-.11,.08-.23,.18-.35,.28-.25,.21-.5,.43-.74,.53-.83,.34-1.23-.07-1.74-.59l-.26-.27c-.39-.41-.76-.79-1.23-1.1-.1-.07-.21-.07-.3-.02-.11,.05-.18,.17-.19,.29,0,.12,.05,.23,.15,.29,.39,.26,.73,.61,1.05,.96,.04,.04,.08,.09,.12,.13-.3-.05-.57-.21-.86-.38-.12-.07-.24-.14-.36-.2Z"/>
      <path class="cls-1" d="M16.8,29.05c.04-.16-.03-.34-.23-.39-.24-.06-.49,0-.68,.18-.11,.1-.17,.24-.21,.38-.28,.1-.46,.34-.44,.63,.01,.21,.18,.31,.34,.31,0,0,.01,0,.02,0,.18-.01,.3-.15,.29-.34,.08-.07,.58,.07,.89,.22,.11,.05,.23,.04,.33-.03,.1-.07,.16-.19,.15-.31,0-.11-.07-.19-.17-.24-.15-.07-.32-.14-.49-.2,.1-.04,.17-.13,.19-.23Z"/>
    </g>
  </g>
</svg>